<svg width="60" height="25" viewBox="0 0 60 25" fill="none" xmlns="http://www.w3.org/2000/svg">
<path d="M49.1101 7.93608C48.8033 3.95548 46.1535 2.92718 44.8519 1.60377C41.2947 2.1449 35.6549 4.01445 35.1032 10.1968C35.9516 11.1992 37.9695 12.6988 40.5209 13.7835C43.0723 14.8682 45.918 14.8802 47.0322 14.8833C47.6898 13.4089 49.376 11.3859 49.1101 7.93608Z" fill="#5D4061" stroke="#5D4061" stroke-width="2" stroke-linecap="round"/>
<path d="M54.4411 13.4446L56.3654 15.899" stroke="#5D4061" stroke-width="3" stroke-linecap="round"/>
<path d="M47.9877 14.9073L48.462 18.2434" stroke="#5D4061" stroke-width="3" stroke-linecap="round"/>
<path d="M41.1154 14.2893L39.8981 17.0933" stroke="#5D4061" stroke-width="3" stroke-linecap="round"/>
<path d="M46.3254 1.05647C54.3671 0.436638 56.3961 5.05196 57.9225 7.97086C56.3638 10.26 53.8326 14.3592 46.8735 14.8956C41.7021 15.2942 36.1119 12.0937 34.6693 10.1969C35.0566 7.37335 38.2836 1.6763 46.3254 1.05647Z" stroke="#5D4061" stroke-width="2" stroke-linecap="round"/>
<path d="M15.4889 13.0414C15.182 9.06078 12.5323 8.03247 11.2307 6.70907C7.67356 7.25019 2.03381 9.11973 1.48209 15.3021C2.33053 16.3045 4.34837 17.8041 6.89974 18.8888C9.45112 19.9735 12.2968 19.9855 13.411 19.9886C14.0685 18.5142 15.7548 16.4912 15.4889 13.0414Z" fill="#5D4061" stroke="#5D4061" stroke-width="2" stroke-linecap="round"/>
<path d="M20.819 18.5498L22.7434 21.0043" stroke="#5D4061" stroke-width="3" stroke-linecap="round"/>
<path d="M14.3656 20.0126L14.8399 23.3487" stroke="#5D4061" stroke-width="3" stroke-linecap="round"/>
<path d="M7.49336 19.3946L6.27601 22.1986" stroke="#5D4061" stroke-width="3" stroke-linecap="round"/>
<path d="M12.7033 6.16185C20.745 5.54202 22.7741 10.1573 24.3004 13.0762C22.7417 15.3653 20.2106 19.4646 13.2514 20.001C8.08 20.3996 2.4898 17.1991 1.04721 15.3023C1.43456 12.4787 4.66158 6.78168 12.7033 6.16185Z" stroke="#5D4061" stroke-width="2" stroke-linecap="round"/>
</svg>
