<svg width="60" height="25" viewBox="0 0 60 25" fill="none" xmlns="http://www.w3.org/2000/svg">
<path d="M49.1101 7.93611C48.8033 3.95551 46.1535 2.92721 44.8519 1.6038C41.2947 2.14493 35.6549 4.01448 35.1032 10.1968C35.9516 11.1992 37.9695 12.6988 40.5209 13.7835C43.0723 14.8682 45.918 14.8802 47.0322 14.8833C47.6898 13.4089 49.376 11.386 49.1101 7.93611Z" fill="#E0A8F4" stroke="#E0A8F4" stroke-width="2" stroke-linecap="round"/>
<path d="M54.4411 13.4446L56.3654 15.899" stroke="#E0A8F4" stroke-width="3" stroke-linecap="round"/>
<path d="M47.9887 14.9074L48.463 18.2434" stroke="#E0A8F4" stroke-width="3" stroke-linecap="round"/>
<path d="M41.1145 14.2893L39.8971 17.0933" stroke="#E0A8F4" stroke-width="3" stroke-linecap="round"/>
<path d="M46.3254 1.0565C54.3671 0.436668 56.3961 5.05199 57.9225 7.97089C56.3638 10.26 53.8326 14.3592 46.8735 14.8956C41.7021 15.2942 36.1119 12.0938 34.6693 10.197C35.0566 7.37338 38.2836 1.67633 46.3254 1.0565Z" stroke="#E0A8F4" stroke-width="2" stroke-linecap="round"/>
<path d="M15.4869 13.0415C15.1801 9.06087 12.5304 8.03256 11.2287 6.70916C7.67161 7.25028 2.03186 9.11982 1.48014 15.3022C2.32858 16.3046 4.34641 17.8041 6.89779 18.8889C9.44917 19.9736 12.2949 19.9856 13.4091 19.9887C14.0666 18.5143 15.7528 16.4913 15.4869 13.0415Z" fill="#E0A8F4" stroke="#E0A8F4" stroke-width="2" stroke-linecap="round"/>
<path d="M20.818 18.5499L22.7424 21.0044" stroke="#E0A8F4" stroke-width="3" stroke-linecap="round"/>
<path d="M14.3656 20.0127L14.8399 23.3488" stroke="#E0A8F4" stroke-width="3" stroke-linecap="round"/>
<path d="M7.49141 19.3946L6.27406 22.1987" stroke="#E0A8F4" stroke-width="3" stroke-linecap="round"/>
<path d="M12.7023 6.16197C20.744 5.54214 22.7731 10.1575 24.2995 13.0764C22.7407 15.3655 20.2096 19.4647 13.2504 20.0011C8.07902 20.3997 2.48883 17.1992 1.04624 15.3024C1.43358 12.4789 4.6606 6.7818 12.7023 6.16197Z" stroke="#E0A8F4" stroke-width="2" stroke-linecap="round"/>
</svg>
