<svg width="560" height="635" viewBox="0 0 560 635" fill="none" xmlns="http://www.w3.org/2000/svg" xmlns:xlink="http://www.w3.org/1999/xlink">
<g clip-path="url(#clip0_478_5943)">
<rect x="3.00195" y="3" width="554" height="629" rx="9" fill="#FFFBEA"/>
<rect x="3.00195" y="3" width="554" height="629" rx="9" fill="url(#pattern0_478_5943)" fill-opacity="0.2"/>
<rect x="3.00195" y="3" width="554" height="629" rx="9" stroke="#FF59A4" stroke-width="6"/>
<path d="M174.001 626.5L99.0165 97.5743L144.043 74.54L546.502 626.5L174.001 626.5Z" fill="url(#paint0_linear_478_5943)" fill-opacity="0.43" stroke="#F1FF4F" stroke-width="3"/>
<path d="M121.588 74.0909C100.855 81.3593 73.6428 83.4357 60.2442 82.1704C53.6627 61.7316 56.6167 28.3212 95.0213 16.0938C133.426 3.86647 157.851 27.6416 163.231 41.3612C156.033 50.425 143.854 66.2849 121.588 74.0909Z" fill="#E0A8F4" stroke="#FF59A4" stroke-width="2"/>
<path d="M141.755 31.4228C141.052 22.055 150.281 18.682 156.979 18.1171C143.197 18.7451 139.177 15.2076 137.015 7.00067C137.956 18.1647 128.826 20.6644 122.951 21.7653C129.213 21.1507 140.129 22.3923 141.755 31.4228Z" fill="#F1FF4F" stroke="#FF59A4" stroke-width="2" stroke-linejoin="round"/>
<path d="M21.003 110.014C16.2865 100.795 45.719 87.6121 60.8602 82.2287C75.801 81.7642 94.9076 82.5605 115.943 75.897C143.99 67.0123 153.6 51.7587 162.631 42.6268C180.021 32.8028 208.138 19.505 215.489 26.1815C224.101 34.0033 165.827 81.1049 131.217 94.4983C98.0801 107.322 26.8987 121.539 21.003 110.014Z" fill="#E0A8F4" stroke="#FF59A4" stroke-width="2"/>
<path d="M185.173 7.46897L183.869 21.2816L172.491 29.8182L186.947 28.99L190.733 40.1906L193.653 29.6232L203.244 29.8388L195.494 22.8338L202.166 15.8013L191.518 17.4846L185.173 7.46897Z" fill="#F1FF4F"/>
<path d="M78.6426 112.741C68.4604 113.701 64.597 103.725 63.8427 96.4461C64.8131 111.435 61.0461 115.884 52.1579 118.409C64.2902 117.152 67.2011 127.038 68.5216 133.409C67.7224 126.606 68.8468 114.699 78.6426 112.741Z" fill="#F1FF4F"/>
<path d="M185.173 7.46897L183.869 21.2816L172.491 29.8182L186.947 28.99L190.733 40.1906L193.653 29.6232L203.244 29.8388L195.494 22.8338L202.166 15.8013L191.518 17.4846L185.173 7.46897Z" stroke="#FF59A4" stroke-width="2" stroke-linejoin="round"/>
<path d="M78.6426 112.741C68.4604 113.701 64.597 103.725 63.8427 96.4461C64.8131 111.435 61.0461 115.884 52.1579 118.409C64.2902 117.152 67.2011 127.038 68.5216 133.409C67.7224 126.606 68.8468 114.699 78.6426 112.741Z" stroke="#FF59A4" stroke-width="2" stroke-linejoin="round"/>
<path d="M87.7495 32.7046C84.9393 40.8599 92.6617 67.6471 96.7051 80.0507C102.214 79.6583 111.922 77.0606 118.67 74.9462C125.417 72.8318 133.164 68.4799 136.536 66.4577C136.536 66.4577 119.498 26.7722 104.151 24.0171C98.5416 23.0101 100.072 32.3861 100.877 37.3208C97.5997 32.7039 90.646 24.2987 87.7495 32.7046Z" fill="#FFFBEA" stroke="#FF59A4" stroke-width="2"/>
<path d="M98.4833 53.7096C97.6985 51.92 98.5019 50.9928 98.759 50.1214C100.42 49.5354 103.286 49.0431 104.949 51.5856C104.813 52.2139 104.288 53.3265 103.436 54.3828C102.584 55.4391 101.358 56.1 100.878 56.3581C100.254 55.873 99.1634 55.2606 98.4833 53.7096Z" fill="#FF59A4" stroke="#FF59A4" stroke-linecap="round"/>
<path d="M97.3468 57.444L97.0814 58.9473" stroke="#FF59A4" stroke-linecap="round"/>
<path d="M100.47 56.5883L101.034 58.1382" stroke="#FF59A4" stroke-linecap="round"/>
<path d="M103.296 54.7382L104.467 55.6685" stroke="#FF59A4" stroke-linecap="round"/>
<path d="M97.9966 50.2245C94.3812 51.8099 94.5686 54.2705 94.5821 55.8826C95.7826 56.5119 97.8202 57.6988 100.949 56.3268C103.274 55.3073 104.95 52.6371 105.136 51.4856C104.318 50.3556 101.612 48.6391 97.9966 50.2245Z" stroke="#FF59A4" stroke-linecap="round"/>
<path d="M113.482 48.7096C112.698 46.92 113.501 45.9928 113.758 45.1214C115.419 44.5354 118.285 44.0431 119.948 46.5856C119.812 47.2139 119.287 48.3265 118.435 49.3828C117.583 50.4391 116.357 51.1 115.877 51.3581C115.253 50.873 114.162 50.2606 113.482 48.7096Z" fill="#FF59A4" stroke="#FF59A4" stroke-linecap="round"/>
<path d="M112.346 52.444L112.08 53.9473" stroke="#FF59A4" stroke-linecap="round"/>
<path d="M115.469 51.5883L116.033 53.1382" stroke="#FF59A4" stroke-linecap="round"/>
<path d="M118.295 49.7382L119.466 50.6685" stroke="#FF59A4" stroke-linecap="round"/>
<path d="M112.996 45.2245C109.38 46.8099 109.568 49.2705 109.581 50.8826C110.782 51.5119 112.819 52.6988 115.948 51.3268C118.273 50.3073 119.949 47.6371 120.135 46.4856C119.317 45.3556 116.611 43.6391 112.996 45.2245Z" stroke="#FF59A4" stroke-linecap="round"/>
<path d="M102.483 42.7096C101.698 40.92 102.502 39.9928 102.759 39.1214C104.42 38.5354 107.286 38.0431 108.949 40.5856C108.813 41.2139 108.288 42.3265 107.436 43.3828C106.584 44.4391 105.358 45.1 104.878 45.3581C104.254 44.873 103.163 44.2606 102.483 42.7096Z" fill="#FF59A4" stroke="#FF59A4" stroke-linecap="round"/>
<path d="M101.347 46.444L101.081 47.9473" stroke="#FF59A4" stroke-linecap="round"/>
<path d="M104.47 45.5883L105.034 47.1382" stroke="#FF59A4" stroke-linecap="round"/>
<path d="M107.296 43.7382L108.467 44.6685" stroke="#FF59A4" stroke-linecap="round"/>
<path d="M101.997 39.2245C98.3812 40.8099 98.5686 43.2705 98.5821 44.8826C99.7826 45.5119 101.82 46.6988 104.949 45.3268C107.274 44.3073 108.95 41.6371 109.136 40.4856C108.318 39.3556 105.612 37.6391 101.997 39.2245Z" stroke="#FF59A4" stroke-linecap="round"/>
<path d="M92.0278 58.2956L84.0518 59.0907" stroke="#FF59A4" stroke-linecap="round"/>
<path d="M93.6548 61.2656L86.0518 63.8042" stroke="#FF59A4" stroke-linecap="round"/>
<path d="M131.901 43.2123L125.052 47.3755" stroke="#FF59A4" stroke-linecap="round"/>
<path d="M133.864 48.2815L126.052 50.074" stroke="#FF59A4" stroke-linecap="round"/>
<rect x="170.013" y="42" width="7" height="7" fill="#F1FF4F"/>
<rect x="64.001" y="36.8021" width="7" height="7" fill="#F1FF4F"/>
<rect x="34.0518" y="110.802" width="7" height="7" fill="#F1FF4F"/>
<rect x="27.001" y="118" width="7" height="7" fill="#F1FF4F"/>
<rect x="41.001" y="104" width="7" height="7" fill="#F1FF4F"/>
<rect x="73.0518" y="70.8021" width="7" height="7" fill="#F1FF4F"/>
<rect x="95.0518" y="88.8021" width="7" height="7" fill="#F1FF4F"/>
<rect x="102.001" y="82" width="7" height="7" fill="#F1FF4F"/>
<rect x="88.001" y="96" width="7" height="7" fill="#F1FF4F"/>
<rect x="132.051" y="91.8021" width="7" height="7" fill="#F1FF4F"/>
<rect x="139.001" y="85" width="7" height="7" fill="#F1FF4F"/>
<rect x="125.001" y="99" width="7" height="7" fill="#F1FF4F"/>
<rect x="128.051" y="126.802" width="7" height="7" fill="#F1FF4F"/>
<rect x="135.001" y="120" width="7" height="7" fill="#F1FF4F"/>
<rect x="121.001" y="134" width="7" height="7" fill="#F1FF4F"/>
<rect x="177.057" y="140.802" width="7" height="7" fill="#F1FF4F"/>
<rect x="184.007" y="134" width="7" height="7" fill="#F1FF4F"/>
<rect x="170.007" y="148" width="7" height="7" fill="#F1FF4F"/>
<rect x="147.051" y="200.802" width="7" height="7" fill="#F1FF4F"/>
<rect x="154.006" y="194" width="7" height="7" fill="#F1FF4F"/>
<rect x="140.001" y="208" width="7" height="7" fill="#F1FF4F"/>
<rect x="198.055" y="241.802" width="7" height="7" fill="#F1FF4F"/>
<rect x="205.005" y="235" width="7" height="7" fill="#F1FF4F"/>
<rect x="191.005" y="249" width="7" height="7" fill="#F1FF4F"/>
<rect x="180.055" y="301.802" width="7" height="7" fill="#F1FF4F"/>
<rect x="187.005" y="295" width="7" height="7" fill="#F1FF4F"/>
<rect x="173.005" y="309" width="7" height="7" fill="#F1FF4F"/>
<rect x="253.055" y="270.802" width="7" height="7" fill="#F1FF4F"/>
<rect x="260.005" y="264" width="7" height="7" fill="#F1FF4F"/>
<rect x="246.005" y="278" width="7" height="7" fill="#F1FF4F"/>
<rect x="236.051" y="342.802" width="7" height="7" fill="#F1FF4F"/>
<rect x="243.001" y="336" width="7" height="7" fill="#F1FF4F"/>
<rect x="229.001" y="350" width="7" height="7" fill="#F1FF4F"/>
<rect x="311.046" y="371.802" width="7" height="7" fill="#F1FF4F"/>
<rect x="317.996" y="365" width="7" height="7" fill="#F1FF4F"/>
<rect x="303.996" y="379" width="7" height="7" fill="#F1FF4F"/>
<rect x="314.047" y="316.802" width="7" height="7" fill="#F1FF4F"/>
<rect x="320.997" y="310" width="7" height="7" fill="#F1FF4F"/>
<rect x="306.997" y="324" width="7" height="7" fill="#F1FF4F"/>
<rect x="219.054" y="419.802" width="7" height="7" fill="#F1FF4F"/>
<rect x="226.004" y="413" width="7" height="7" fill="#F1FF4F"/>
<rect x="212.004" y="427" width="7" height="7" fill="#F1FF4F"/>
<rect x="165.052" y="373.802" width="7" height="7" fill="#F1FF4F"/>
<rect x="172.002" y="367" width="7" height="7" fill="#F1FF4F"/>
<rect x="158.002" y="381" width="7" height="7" fill="#F1FF4F"/>
<rect x="285.049" y="449.802" width="7" height="7" fill="#F1FF4F"/>
<rect x="291.997" y="443" width="7" height="7" fill="#F1FF4F"/>
<rect x="277.999" y="457" width="7" height="7" fill="#F1FF4F"/>
<rect x="259.053" y="514.802" width="7" height="7" fill="#F1FF4F"/>
<rect x="266.001" y="508" width="7" height="7" fill="#F1FF4F"/>
<rect x="252.003" y="522" width="7" height="7" fill="#F1FF4F"/>
<rect x="223.053" y="559.802" width="7" height="7" fill="#F1FF4F"/>
<rect x="230.001" y="553" width="7" height="7" fill="#F1FF4F"/>
<rect x="216.003" y="567" width="7" height="7" fill="#F1FF4F"/>
<rect x="331.05" y="554.802" width="7" height="7" fill="#F1FF4F"/>
<rect x="337.998" y="548" width="7" height="7" fill="#F1FF4F"/>
<rect x="324" y="562" width="7" height="7" fill="#F1FF4F"/>
<rect x="401.05" y="507.802" width="7" height="7" fill="#F1FF4F"/>
<rect x="407.998" y="501" width="7" height="7" fill="#F1FF4F"/>
<rect x="394" y="515" width="7" height="7" fill="#F1FF4F"/>
<rect x="338.05" y="486.802" width="7" height="7" fill="#F1FF4F"/>
<rect x="344.998" y="480" width="7" height="7" fill="#F1FF4F"/>
<rect x="331" y="494" width="7" height="7" fill="#F1FF4F"/>
<rect x="205.053" y="481.802" width="7" height="7" fill="#F1FF4F"/>
<rect x="212.003" y="475" width="7" height="7" fill="#F1FF4F"/>
<rect x="198.003" y="489" width="7" height="7" fill="#F1FF4F"/>
<rect x="356.048" y="425.802" width="7" height="7" fill="#F1FF4F"/>
<rect x="362.998" y="419" width="7" height="7" fill="#F1FF4F"/>
<rect x="348.998" y="433" width="7" height="7" fill="#F1FF4F"/>
<rect x="400.051" y="467.802" width="7" height="7" fill="#F1FF4F"/>
<rect x="407.001" y="461" width="7" height="7" fill="#F1FF4F"/>
<rect x="393.001" y="475" width="7" height="7" fill="#F1FF4F"/>
<rect x="151.065" y="23.8021" width="7" height="7" fill="#F1FF4F"/>
<rect x="163.013" y="49" width="7" height="7" fill="#F1FF4F"/>
<rect x="156.013" y="56" width="7" height="7" fill="#F1FF4F"/>
<rect x="144.052" y="30.8021" width="7" height="7" fill="#F1FF4F"/>
<rect x="70.9502" y="30" width="7" height="7" fill="#F1FF4F"/>
<rect x="77.9502" y="23" width="7" height="7" fill="#F1FF4F"/>
<rect x="66.0518" y="77.8021" width="7" height="7" fill="#F1FF4F"/>
<rect x="59.001" y="85" width="7" height="7" fill="#F1FF4F"/>
<path d="M125.231 536.28C140.301 541.308 148.923 556.028 144.848 568.99C140.772 581.953 125.408 588.67 110.338 583.642C95.2683 578.615 86.645 563.895 90.7209 550.932C94.797 537.969 110.161 531.252 125.231 536.28Z" fill="#FFFBEA" stroke="#5D4061" stroke-width="2"/>
<path d="M72.8413 525.138C57.3755 521.696 42.9161 530.011 40.3228 543.391C37.7296 556.771 47.9033 570.568 63.369 574.009C78.8346 577.451 93.2931 569.136 95.8865 555.756C98.4798 542.376 88.3068 528.579 72.8413 525.138Z" fill="#FFFBEA" stroke="#5D4061" stroke-width="2"/>
<path d="M75.7347 525.308L99.0573 499.148L116.941 533.939" stroke="#5D4061" stroke-width="3" stroke-linecap="round"/>
<path d="M87.5021 495.345L111.586 498.946" stroke="#5D4061" stroke-width="3" stroke-linecap="round"/>
<path d="M35.2356 579.358L46.0685 564.634L43.245 560.33L40.8862 555.14L33.6812 564.573C31.5397 558.576 22.0576 551.926 18.3702 556.952C13.3424 563.804 26.2793 575.34 35.2356 579.358Z" fill="#FFFBEA" stroke="#5D4061" stroke-width="2" stroke-linecap="round"/>
<path d="M67.8464 595.571L71.874 575.717C71.874 575.717 68.6517 575.623 66.5171 575.165C64.5984 574.753 61.3926 574.17 61.3926 574.17L59.9212 582.993C55.3508 578.559 43.9063 576.781 42.8181 582.919C41.3344 591.287 58.0363 595.923 67.8464 595.571Z" fill="#FFFBEA" stroke="#5D4061" stroke-width="2" stroke-linecap="round"/>
<path d="M117.008 603.794L121.527 585.468C121.527 585.468 124.925 585.247 126.905 584.902C129.099 584.52 132.306 583.218 132.306 583.218L129.483 595.709C135.494 593.604 146.626 596.798 145.036 602.825C142.867 611.043 125.763 608.234 117.008 603.794Z" fill="#FFFBEA" stroke="#5D4061" stroke-width="2" stroke-linecap="round"/>
<path d="M86.4198 592.628L97.8046 575.871C97.8046 575.871 100.124 578.11 101.943 579.316C103.579 580.401 106.236 582.286 106.236 582.286L100.954 589.505C107.32 589.675 116.591 596.617 112.962 601.685C108.014 608.595 93.0251 599.89 86.4198 592.628Z" fill="#FFFBEA" stroke="#5D4061" stroke-width="2" stroke-linecap="round"/>
<path d="M54.3824 545.878C54.986 542.887 56.8452 542.423 57.9561 541.54C60.6047 542.282 64.7097 544.226 64.5525 548.968C63.8153 549.649 62.1446 550.599 60.1077 551.185C58.0707 551.77 55.9104 551.514 55.0647 551.413C54.7032 550.233 53.8593 548.471 54.3824 545.878Z" fill="#00CEFF" stroke="#5D4061" stroke-width="2" stroke-linecap="round"/>
<path d="M49.5767 549.631L47.8879 551.314" stroke="#5D4061" stroke-width="2" stroke-linecap="round"/>
<path d="M54.3381 551.342L53.6674 553.829" stroke="#5D4061" stroke-width="2" stroke-linecap="round"/>
<path d="M59.6092 551.513L60.2717 553.754" stroke="#5D4061" stroke-width="2" stroke-linecap="round"/>
<path d="M56.8885 540.987C50.8446 539.768 48.8751 543.081 47.4451 545.153C48.4145 547.035 49.9531 550.381 55.1835 551.437C59.0702 552.221 63.6099 550.313 64.8811 549.008C64.8503 546.83 62.9324 542.207 56.8885 540.987Z" stroke="#5D4061" stroke-width="2" stroke-linecap="round"/>
<path d="M76.65 550.786C77.2536 547.794 79.1128 547.33 80.2237 546.447C82.8723 547.189 86.9773 549.133 86.82 553.875C86.0829 554.557 84.4122 555.507 82.3752 556.092C80.3383 556.677 78.178 556.421 77.3323 556.32C76.9707 555.14 76.1269 553.378 76.65 550.786Z" fill="#00CEFF" stroke="#5D4061" stroke-width="2" stroke-linecap="round"/>
<path d="M71.8452 554.538L70.1565 556.221" stroke="#5D4061" stroke-width="2" stroke-linecap="round"/>
<path d="M76.6066 556.25L75.936 558.737" stroke="#5D4061" stroke-width="2" stroke-linecap="round"/>
<path d="M81.8778 556.42L82.5402 558.661" stroke="#5D4061" stroke-width="2" stroke-linecap="round"/>
<path d="M79.1571 545.895C73.1131 544.675 71.1436 547.988 69.7136 550.061C70.6831 551.943 72.2217 555.289 77.452 556.344C81.3387 557.128 85.8784 555.221 87.1497 553.916C87.1188 551.737 85.201 547.114 79.1571 545.895Z" stroke="#5D4061" stroke-width="2" stroke-linecap="round"/>
<path d="M133.564 562.377C134.204 559.393 132.685 558.226 132.018 556.974C129.294 556.597 124.754 556.742 123.006 561.153C123.41 562.072 124.563 563.61 126.198 564.959C127.832 566.309 129.915 566.936 130.731 567.18C131.533 566.242 133.01 564.964 133.564 562.377Z" fill="#00CEFF" stroke="#5D4061" stroke-width="2" stroke-linecap="round"/>
<path d="M136.473 567.735L137.35 569.952" stroke="#5D4061" stroke-width="2" stroke-linecap="round"/>
<path d="M131.426 567.405L131.049 569.953" stroke="#5D4061" stroke-width="2" stroke-linecap="round"/>
<path d="M126.522 565.459L125.021 567.25" stroke="#5D4061" stroke-width="2" stroke-linecap="round"/>
<path d="M133.216 556.892C139.245 558.185 139.729 562.009 140.214 564.48C138.574 565.819 135.828 568.273 130.611 567.155C126.734 566.323 123.333 562.763 122.687 561.059C123.585 559.074 127.188 555.6 133.216 556.892Z" stroke="#5D4061" stroke-width="2" stroke-linecap="round"/>
<path d="M109.943 557.891C110.583 554.906 109.064 553.739 108.397 552.487C105.672 552.11 101.133 552.255 99.3851 556.667C99.7891 557.586 100.942 559.123 102.577 560.472C104.211 561.822 106.294 562.449 107.11 562.693C107.912 561.756 109.389 560.477 109.943 557.891Z" fill="#00CEFF" stroke="#5D4061" stroke-width="2" stroke-linecap="round"/>
<path d="M112.852 563.249L113.73 565.466" stroke="#5D4061" stroke-width="2" stroke-linecap="round"/>
<path d="M107.805 562.918L107.428 565.467" stroke="#5D4061" stroke-width="2" stroke-linecap="round"/>
<path d="M102.902 560.972L101.401 562.763" stroke="#5D4061" stroke-width="2" stroke-linecap="round"/>
<path d="M109.596 552.406C115.625 553.699 116.109 557.522 116.594 559.993C114.954 561.332 112.208 563.787 106.991 562.668C103.114 561.836 99.7125 558.276 99.0673 556.572C99.9647 554.587 103.568 551.113 109.596 552.406Z" stroke="#5D4061" stroke-width="2" stroke-linecap="round"/>
<path d="M79.9621 452.324L69.0637 453.539L71.0613 463.638C65.238 461.06 53.886 463.355 54.9904 469.49C56.4962 477.855 73.7699 476.42 82.8514 472.693L79.9621 452.324Z" fill="#FFFBEA" stroke="#5D4061" stroke-width="2" stroke-linecap="round"/>
<path d="M98.7324 420.323L98.0069 431.265L108.3 431.079C104.736 436.356 104.994 447.935 111.228 447.929C119.727 447.922 121.359 430.666 119.292 421.069L98.7324 420.323Z" fill="#FFFBEA" stroke="#5D4061" stroke-width="2" stroke-linecap="round"/>
<path d="M90.2175 448.987C61.7543 461.731 9.54126 446.233 40.6017 404.399C79.4272 352.106 114.437 415.336 90.2175 448.987Z" fill="#FFFBEA" stroke="#5D4061" stroke-width="2" stroke-linecap="round"/>
<path d="M38.9873 406.69C34.1315 408.173 29.0876 412.955 26.3546 408.396C23.4461 403.544 34.7372 396.468 38.4356 397.49C32.4478 395.566 23.4433 391.698 29.2975 386.231C35.1294 380.785 38.8261 389.651 40.7062 395.487C39.746 392.302 44.112 377.875 49.7885 379.705C55.4991 381.546 49.3701 390.497 48.6712 394.577L38.9873 406.69Z" fill="#FFFBEA"/>
<path d="M38.9873 406.69C34.1315 408.173 29.0876 412.955 26.3546 408.396C23.4461 403.544 34.7372 396.468 38.4356 397.49C32.4478 395.566 23.4433 391.698 29.2975 386.231C35.1516 380.764 38.8544 389.719 40.7277 395.554C39.6835 392.509 44.0714 377.862 49.7885 379.705C55.4991 381.546 49.3701 390.497 48.6712 394.577L38.9873 406.69Z" stroke="#5D4061" stroke-width="2" stroke-linecap="round"/>
<path d="M62.6814 423.453C58.1696 421.012 58.3477 417.364 57.4748 415.145C59.9693 411.252 65.1116 405.61 72.6564 408.194C73.3895 409.714 74.0948 412.866 74.0343 416.428C73.9738 419.989 72.5004 423.336 71.9217 424.645C69.8474 424.646 66.5916 425.568 62.6814 423.453Z" fill="#00CEFF" stroke="#5D4061" stroke-width="2" stroke-linecap="round"/>
<path d="M66.3604 432.589L68.2354 436.13" stroke="#5D4061" stroke-width="3" stroke-linecap="round"/>
<path d="M71.451 425.778L75.1187 428.079" stroke="#5D4061" stroke-width="3" stroke-linecap="round"/>
<path d="M74.3165 417.39L78.244 417.426" stroke="#5D4061" stroke-width="3" stroke-linecap="round"/>
<path d="M56.0616 416.588C51.1306 425.703 55.4872 430.497 58.1153 433.814C61.6169 433.181 67.7513 432.353 72.0185 424.465C75.1895 418.604 74.3551 410.37 72.8828 407.685C69.3662 406.664 60.9926 407.474 56.0616 416.588Z" stroke="#5D4061" stroke-width="2" stroke-linecap="round"/>
<path d="M62.6814 423.453C58.1696 421.012 58.3477 417.364 57.4748 415.145C59.9693 411.252 65.1116 405.61 72.6564 408.194C73.3895 409.714 74.0948 412.866 74.0343 416.428C73.9738 419.989 72.5004 423.336 71.9217 424.645C69.8474 424.646 66.5916 425.568 62.6814 423.453Z" fill="#00CEFF" stroke="#5D4061" stroke-width="2" stroke-linecap="round"/>
<path d="M66.3604 432.589L68.2354 436.13" stroke="#5D4061" stroke-width="3" stroke-linecap="round"/>
<path d="M71.451 425.778L75.1187 428.079" stroke="#5D4061" stroke-width="3" stroke-linecap="round"/>
<path d="M74.3165 417.39L78.244 417.426" stroke="#5D4061" stroke-width="3" stroke-linecap="round"/>
<path d="M56.0616 416.588C51.1306 425.703 55.4872 430.497 58.1153 433.814C61.6169 433.181 67.7513 432.353 72.0185 424.465C75.1895 418.604 74.3551 410.37 72.8828 407.685C69.3662 406.664 60.9926 407.474 56.0616 416.588Z" stroke="#5D4061" stroke-width="2" stroke-linecap="round"/>
<path d="M241.436 71.8344L241.207 60.8709L230.969 61.9515C234.061 56.3839 232.797 44.8713 226.588 45.4191C218.121 46.1661 217.996 63.4988 220.89 72.8788L241.436 71.8344Z" fill="#FFFBEA" stroke="#5D4061" stroke-width="2" stroke-linecap="round"/>
<path d="M271.619 93.409L260.787 91.7017L260.046 101.97C255.111 97.9454 243.555 97.1603 243 103.369C242.243 111.834 259.282 115.013 269.026 113.818L271.619 93.409Z" fill="#FFFBEA" stroke="#5D4061" stroke-width="2" stroke-linecap="round"/>
<path d="M243.837 82.3489C233.706 52.8543 253.84 2.24791 292.709 36.9472C341.296 80.3214 275.171 109.499 243.837 82.3489Z" fill="#FFFBEA" stroke="#5D4061" stroke-width="2" stroke-linecap="round"/>
<path d="M290.573 35.1334C289.534 30.1638 285.225 24.71 290.012 22.3985C295.105 19.9384 301.136 31.8205 299.786 35.4119C302.241 29.6216 306.903 21.0017 311.822 27.3241C316.721 33.6225 307.558 36.5063 301.576 37.8535C304.835 37.1839 318.811 42.8306 316.477 48.3193C314.13 53.841 305.767 46.9314 301.766 45.8681L290.573 35.1334Z" fill="#FFFBEA"/>
<path d="M290.573 35.1334C289.534 30.1638 285.225 24.71 290.012 22.3985C295.105 19.9384 301.136 31.8205 299.786 35.4119C302.241 29.6216 306.903 21.0017 311.822 27.3241C316.74 33.6465 307.487 36.5283 301.508 37.8689C304.634 37.103 318.827 42.7913 316.477 48.3193C314.13 53.841 305.767 46.9314 301.766 45.8681L290.573 35.1334Z" stroke="#5D4061" stroke-width="2" stroke-linecap="round"/>
<path d="M271.746 57.222C274.583 52.9482 278.2 53.4538 280.489 52.7841C284.141 55.6188 289.297 61.248 286.045 68.5297C284.465 69.123 281.262 69.5418 277.721 69.161C274.179 68.7802 270.979 67.0117 269.727 66.3174C269.912 64.2515 269.287 60.9259 271.746 57.222Z" fill="#00CEFF" stroke="#5D4061" stroke-width="2" stroke-linecap="round"/>
<path d="M262.316 60.0642L258.62 61.6128" stroke="#5D4061" stroke-width="3" stroke-linecap="round"/>
<path d="M268.64 65.7468L266.019 69.1926" stroke="#5D4061" stroke-width="3" stroke-linecap="round"/>
<path d="M276.738 69.3562L276.348 73.2645" stroke="#5D4061" stroke-width="3" stroke-linecap="round"/>
<path d="M279.178 51.2471C270.544 45.5159 265.377 49.4233 261.837 51.7422C262.152 55.2866 262.425 61.4706 269.897 66.4304C275.449 70.116 283.725 70.026 286.532 68.8013C287.865 65.3909 287.812 56.9784 279.178 51.2471Z" stroke="#5D4061" stroke-width="2" stroke-linecap="round"/>
<path d="M271.746 57.222C274.583 52.9482 278.2 53.4538 280.489 52.7841C284.141 55.6188 289.297 61.248 286.045 68.5297C284.465 69.123 281.262 69.5418 277.721 69.161C274.179 68.7802 270.979 67.0117 269.727 66.3174C269.912 64.2515 269.287 60.9259 271.746 57.222Z" fill="#00CEFF" stroke="#5D4061" stroke-width="2" stroke-linecap="round"/>
<path d="M262.316 60.0642L258.62 61.6128" stroke="#5D4061" stroke-width="3" stroke-linecap="round"/>
<path d="M268.64 65.7468L266.019 69.1926" stroke="#5D4061" stroke-width="3" stroke-linecap="round"/>
<path d="M276.738 69.3562L276.348 73.2645" stroke="#5D4061" stroke-width="3" stroke-linecap="round"/>
<path d="M279.178 51.2471C270.544 45.5159 265.377 49.4233 261.837 51.7422C262.152 55.2866 262.425 61.4706 269.897 66.4304C275.449 70.116 283.725 70.026 286.532 68.8013C287.865 65.3909 287.812 56.9784 279.178 51.2471Z" stroke="#5D4061" stroke-width="2" stroke-linecap="round"/>
<path d="M62.3779 213.002L49.9251 183.569L62.551 178.455L81.3614 222.575L71.2657 228.283C51.0622 237.533 44.4289 223.462 49.49 217.143C52.7144 213.117 58.6588 211.811 62.3779 213.002Z" fill="#FFFBEA" stroke="#5D4061" stroke-width="2" stroke-linecap="round"/>
<path d="M93.1365 201.034L81.5964 171.232L68.9705 176.346L86.1664 221.12L97.3883 218.193C118.335 210.776 113.306 196.055 105.274 195.039C100.156 194.392 94.9786 197.591 93.1365 201.034Z" fill="#FFFBEA" stroke="#5D4061" stroke-width="2" stroke-linecap="round"/>
<rect x="21.3042" y="162.206" width="69" height="30" rx="15" transform="rotate(-22.0501 21.3042 162.206)" fill="#FFFBEA" stroke="#5D4061" stroke-width="2"/>
<path d="M56.2587 162.34C54.4481 158.298 56.2524 156.182 56.8195 154.202C60.5731 152.844 67.0605 151.677 70.8748 157.41C70.5792 158.837 69.4074 161.368 67.4957 163.777C65.584 166.187 62.8169 167.707 61.7327 168.3C60.3104 167.212 57.828 165.843 56.2587 162.34Z" fill="#00CEFF" stroke="#5D4061" stroke-width="2" stroke-linecap="round"/>
<path d="M53.7506 170.824L53.176 174.236" stroke="#5D4061" stroke-width="3" stroke-linecap="round"/>
<path d="M60.8159 168.829L62.1217 172.332" stroke="#5D4061" stroke-width="3" stroke-linecap="round"/>
<path d="M67.1843 164.585L69.8568 166.673" stroke="#5D4061" stroke-width="3" stroke-linecap="round"/>
<path d="M55.0936 154.45C46.9276 158.108 47.3962 163.681 47.4556 167.335C50.1879 168.74 54.8273 171.393 61.894 168.228C67.1453 165.875 70.8973 159.794 71.2979 157.18C69.4239 154.634 63.2595 150.792 55.0936 154.45Z" stroke="#5D4061" stroke-width="2" stroke-linecap="round"/>
<path d="M33.9771 325.355L43.2355 304.897L53.2354 307.228L40.1356 345.704L29.0402 342.329C8.4084 334.078 14.0239 319.57 22.0903 318.878C27.2294 318.436 32.2747 321.84 33.9771 325.355Z" fill="#FFFBEA" stroke="#5D4061" stroke-width="2" stroke-linecap="round"/>
<path d="M63.6518 338.785L66.3025 326.862L61.651 316.524L44.2995 347.589L54.158 353.697C73.9741 363.751 81.1667 349.957 76.3633 343.44C73.303 339.288 67.4157 337.744 63.6518 338.785Z" fill="#FFFBEA" stroke="#5D4061" stroke-width="2" stroke-linecap="round"/>
<path d="M98.7842 253.759C102.454 252.381 106.21 255.57 105.446 259.415L101.584 278.845C101.182 280.867 101.691 282.963 102.977 284.575L115.332 300.061C117.776 303.126 115.904 307.683 112.012 308.144L92.3385 310.475C90.2911 310.717 88.4545 311.85 87.319 313.571L76.4093 330.107C74.2504 333.379 69.3375 333.007 67.6957 329.447L59.4004 311.457C58.537 309.585 56.8915 308.188 54.9039 307.64L35.806 302.374C32.0272 301.332 30.863 296.544 33.7413 293.883L48.287 280.434C49.8009 279.035 50.6211 277.039 50.5282 274.979L49.6349 255.188C49.4585 251.272 53.6515 248.686 57.0719 250.601L74.3581 260.279C76.157 261.286 78.3084 261.448 80.2385 260.723L98.7842 253.759Z" fill="#FFFBEA" stroke="#5D4061" stroke-width="2"/>
<path d="M72.9791 285.429C75.9136 281.222 79.5178 281.811 81.8217 281.194C85.4075 284.112 90.4334 289.858 87.0144 297.063C85.4215 297.62 82.2098 297.965 78.6777 297.503C75.1457 297.04 71.987 295.199 70.7513 294.476C70.9843 292.415 70.4359 289.076 72.9791 285.429Z" fill="#00CEFF" stroke="#5D4061" stroke-width="2" stroke-linecap="round"/>
<path d="M63.4863 288.054L59.7557 289.517" stroke="#5D4061" stroke-width="3" stroke-linecap="round"/>
<path d="M69.6789 293.88L66.9791 297.265" stroke="#5D4061" stroke-width="3" stroke-linecap="round"/>
<path d="M77.6896 297.675L77.2097 301.573" stroke="#5D4061" stroke-width="3" stroke-linecap="round"/>
<path d="M80.5466 279.627C72.0466 273.699 66.7914 277.486 63.1987 279.723C63.4324 283.274 63.5629 289.463 70.9187 294.593C76.3848 298.405 84.6606 298.505 87.4943 297.346C88.906 293.967 89.0466 285.555 80.5466 279.627Z" stroke="#5D4061" stroke-width="2" stroke-linecap="round"/>
<path d="M552.027 624.088L481.5 116L376.5 94.9995L174.5 627.5L549.055 627.5C550.876 627.5 552.277 625.891 552.027 624.088Z" fill="url(#paint1_linear_478_5943)" fill-opacity="0.43" stroke="#F1FF4F" stroke-width="3"/>
<path d="M257.877 586H250.841V563.065L238.46 584.845C238.156 585.4 237.726 585.821 237.171 586.107C236.634 586.394 236.052 586.537 235.426 586.537C234.817 586.537 234.244 586.394 233.707 586.107C233.188 585.821 232.776 585.4 232.472 584.845L220.038 563.065V586H213.055V550.47C213.055 549.665 213.288 548.948 213.753 548.322C214.237 547.695 214.863 547.274 215.633 547.06C216.009 546.97 216.385 546.943 216.761 546.979C217.137 546.997 217.495 547.077 217.835 547.221C218.194 547.346 218.516 547.534 218.802 547.785C219.089 548.017 219.33 548.304 219.527 548.644L235.426 576.278L251.324 548.644C251.736 547.964 252.3 547.48 253.016 547.194C253.75 546.907 254.511 546.863 255.299 547.06C256.051 547.274 256.668 547.695 257.152 548.322C257.635 548.948 257.877 549.665 257.877 550.47V586ZM303.8 586H296.817V576.547H272.271V586H265.289V566.745C265.289 563.934 265.772 561.347 266.739 558.983C267.706 556.62 269.049 554.588 270.768 552.887C272.486 551.186 274.518 549.861 276.864 548.913C279.209 547.964 281.769 547.489 284.544 547.489H300.282C300.765 547.489 301.222 547.579 301.651 547.758C302.081 547.937 302.457 548.188 302.779 548.51C303.102 548.832 303.352 549.208 303.531 549.638C303.71 550.067 303.8 550.524 303.8 551.007V586ZM272.271 569.564H296.817V554.472H284.544C284.33 554.472 283.873 554.507 283.175 554.579C282.494 554.633 281.698 554.785 280.785 555.036C279.889 555.286 278.941 555.671 277.938 556.19C276.935 556.71 276.013 557.426 275.172 558.339C274.33 559.252 273.632 560.398 273.077 561.776C272.54 563.137 272.271 564.793 272.271 566.745V569.564ZM350.367 569.887C350.367 572.232 349.955 574.389 349.132 576.359C348.326 578.328 347.207 580.029 345.775 581.461C344.343 582.876 342.642 583.986 340.672 584.792C338.703 585.597 336.563 586 334.254 586H315.401C314.9 586 314.435 585.91 314.005 585.731C313.575 585.552 313.199 585.311 312.877 585.006C312.573 584.684 312.331 584.308 312.152 583.878C311.973 583.449 311.883 582.983 311.883 582.482V551.007C311.883 550.524 311.973 550.067 312.152 549.638C312.331 549.208 312.573 548.832 312.877 548.51C313.199 548.188 313.575 547.937 314.005 547.758C314.435 547.579 314.9 547.489 315.401 547.489H334.254C336.563 547.489 338.703 547.892 340.672 548.698C342.642 549.503 344.343 550.622 345.775 552.055C347.207 553.469 348.326 555.17 349.132 557.157C349.955 559.127 350.367 561.275 350.367 563.603V569.887ZM343.385 563.603C343.385 562.242 343.161 560.998 342.713 559.87C342.284 558.742 341.666 557.784 340.86 556.996C340.055 556.19 339.088 555.573 337.96 555.143C336.85 554.695 335.615 554.472 334.254 554.472H318.866V579.018H334.254C335.615 579.018 336.85 578.803 337.96 578.373C339.088 577.925 340.055 577.308 340.86 576.52C341.666 575.714 342.284 574.757 342.713 573.646C343.161 572.519 343.385 571.265 343.385 569.887V563.603ZM392.584 586H360.733C360.232 586 359.767 585.91 359.337 585.731C358.907 585.552 358.531 585.311 358.209 585.006C357.905 584.684 357.663 584.308 357.484 583.878C357.305 583.449 357.215 582.983 357.215 582.482V547.489H364.198V579.018H392.584V586ZM404.75 586H397.767V547.489H404.75V586ZM451.344 577.541C451.344 578.4 451.192 579.322 450.887 580.307C450.601 581.291 450.117 582.204 449.437 583.046C448.775 583.887 447.906 584.595 446.832 585.167C445.758 585.722 444.442 586 442.884 586H416.378C415.877 586 415.411 585.91 414.981 585.731C414.552 585.552 414.176 585.311 413.854 585.006C413.549 584.684 413.307 584.308 413.128 583.878C412.949 583.449 412.86 582.983 412.86 582.482V551.007C412.86 550.524 412.949 550.067 413.128 549.638C413.307 549.208 413.549 548.832 413.854 548.51C414.176 548.188 414.552 547.937 414.981 547.758C415.411 547.579 415.877 547.489 416.378 547.489H439.742C440.602 547.489 441.524 547.641 442.508 547.946C443.493 548.25 444.406 548.743 445.248 549.423C446.107 550.085 446.814 550.954 447.369 552.028C447.942 553.102 448.229 554.418 448.229 555.976V557.292C448.229 558.527 448.023 559.861 447.611 561.293C447.199 562.707 446.537 564.05 445.624 565.321C446.411 565.805 447.145 566.387 447.826 567.067C448.524 567.747 449.133 568.535 449.652 569.43C450.171 570.325 450.583 571.337 450.887 572.465C451.192 573.593 451.344 574.837 451.344 576.198V577.541ZM444.361 576.198C444.361 575.285 444.218 574.47 443.932 573.754C443.645 573.02 443.242 572.393 442.723 571.874C442.204 571.355 441.577 570.961 440.843 570.692C440.109 570.406 439.286 570.263 438.373 570.263H422.635V563.227H435.23C436.144 563.227 436.967 563.092 437.701 562.824C438.435 562.537 439.062 562.134 439.581 561.615C440.1 561.096 440.494 560.478 440.763 559.762C441.049 559.028 441.192 558.205 441.192 557.292V555.976C441.192 554.973 440.709 554.472 439.742 554.472H419.842V579.018H442.884C443.01 579.018 443.162 579.009 443.341 578.991C443.52 578.973 443.681 578.919 443.824 578.83C443.967 578.74 444.093 578.588 444.2 578.373C444.308 578.158 444.361 577.863 444.361 577.487V576.198ZM494.447 574.667C494.447 576.046 494.268 577.29 493.91 578.4C493.569 579.492 493.113 580.459 492.54 581.3C491.967 582.142 491.296 582.858 490.526 583.449C489.756 584.04 488.959 584.523 488.136 584.899C487.312 585.275 486.471 585.552 485.611 585.731C484.77 585.91 483.973 586 483.221 586H456.285V579.018H483.221C484.564 579.018 485.602 578.624 486.336 577.836C487.088 577.048 487.464 575.992 487.464 574.667C487.464 574.022 487.366 573.432 487.169 572.895C486.972 572.357 486.686 571.892 486.31 571.498C485.951 571.104 485.504 570.8 484.967 570.585C484.448 570.37 483.866 570.263 483.221 570.263H467.162C466.034 570.263 464.816 570.066 463.509 569.672C462.202 569.26 460.985 568.607 459.857 567.711C458.747 566.816 457.816 565.644 457.064 564.193C456.33 562.743 455.963 560.971 455.963 558.876C455.963 556.781 456.33 555.018 457.064 553.585C457.816 552.135 458.747 550.963 459.857 550.067C460.985 549.154 462.202 548.501 463.509 548.107C464.816 547.695 466.034 547.489 467.162 547.489H490.929V554.472H467.162C465.837 554.472 464.798 554.875 464.046 555.68C463.312 556.486 462.945 557.551 462.945 558.876C462.945 560.219 463.312 561.284 464.046 562.072C464.798 562.842 465.837 563.227 467.162 563.227H483.221H483.275C484.027 563.244 484.824 563.352 485.665 563.549C486.507 563.728 487.339 564.014 488.163 564.408C489.004 564.802 489.801 565.303 490.553 565.912C491.305 566.503 491.967 567.219 492.54 568.061C493.131 568.902 493.596 569.869 493.937 570.961C494.277 572.053 494.447 573.288 494.447 574.667Z" fill="#FF59A4"/>
<path d="M224.988 608.277H216.971V605.719H224.988V608.277ZM226.131 614H216.971C216.619 614 216.235 613.938 215.818 613.814C215.402 613.691 215.014 613.489 214.656 613.209C214.305 612.923 214.008 612.555 213.768 612.105C213.533 611.65 213.416 611.093 213.416 610.436V601.275C213.416 601.1 213.449 600.934 213.514 600.777C213.579 600.621 213.667 600.484 213.777 600.367C213.895 600.25 214.031 600.159 214.188 600.094C214.344 600.029 214.513 599.996 214.695 599.996H226.131V602.535H215.955V610.436C215.955 610.768 216.043 611.021 216.219 611.197C216.395 611.373 216.652 611.461 216.99 611.461H226.131V614ZM239.93 614H237.391V608.141C237.391 607.809 237.332 607.512 237.215 607.252C237.104 606.985 236.951 606.757 236.756 606.568C236.561 606.38 236.329 606.236 236.062 606.139C235.802 606.035 235.519 605.982 235.213 605.982H230.77V614H228.23V604.703C228.23 604.527 228.263 604.365 228.328 604.215C228.393 604.059 228.484 603.925 228.602 603.814C228.719 603.697 228.855 603.606 229.012 603.541C229.168 603.476 229.334 603.443 229.51 603.443H235.232C235.551 603.443 235.887 603.479 236.238 603.551C236.596 603.622 236.948 603.74 237.293 603.902C237.645 604.059 237.977 604.26 238.289 604.508C238.608 604.749 238.888 605.045 239.129 605.396C239.376 605.742 239.572 606.142 239.715 606.598C239.858 607.053 239.93 607.568 239.93 608.141V614ZM244.734 601.275H242.195V598.98H244.734V601.275ZM244.734 615.016C244.734 615.452 244.679 615.842 244.568 616.188C244.458 616.539 244.311 616.845 244.129 617.105C243.947 617.372 243.735 617.597 243.494 617.779C243.253 617.968 242.999 618.121 242.732 618.238C242.472 618.355 242.208 618.44 241.941 618.492C241.674 618.551 241.421 618.58 241.18 618.58H236.6V616.041H241.18C241.518 616.041 241.772 615.953 241.941 615.777C242.111 615.602 242.195 615.348 242.195 615.016V603.443H244.734V615.016ZM258.66 610.436C258.66 610.872 258.605 611.266 258.494 611.617C258.383 611.962 258.237 612.268 258.055 612.535C257.872 612.796 257.661 613.02 257.42 613.209C257.179 613.391 256.925 613.541 256.658 613.658C256.398 613.775 256.131 613.863 255.857 613.922C255.59 613.974 255.337 614 255.096 614H250.516C250.164 614 249.78 613.938 249.363 613.814C248.947 613.691 248.559 613.489 248.201 613.209C247.85 612.923 247.553 612.555 247.312 612.105C247.078 611.65 246.961 611.093 246.961 610.436V606.998C246.961 606.347 247.078 605.797 247.312 605.348C247.553 604.892 247.85 604.524 248.201 604.244C248.559 603.958 248.947 603.753 249.363 603.629C249.78 603.505 250.164 603.443 250.516 603.443H255.096C255.747 603.443 256.3 603.561 256.756 603.795C257.212 604.029 257.579 604.326 257.859 604.684C258.139 605.035 258.341 605.419 258.465 605.836C258.595 606.253 258.66 606.64 258.66 606.998V610.436ZM256.121 607.018C256.121 606.666 256.033 606.406 255.857 606.236C255.682 606.067 255.428 605.982 255.096 605.982H250.535C250.197 605.982 249.939 606.07 249.764 606.246C249.588 606.415 249.5 606.666 249.5 606.998V610.436C249.5 610.768 249.588 611.021 249.764 611.197C249.939 611.373 250.197 611.461 250.535 611.461H255.096C255.441 611.461 255.698 611.373 255.867 611.197C256.036 611.021 256.121 610.768 256.121 610.436V607.018ZM272.469 615.016C272.469 615.452 272.413 615.842 272.303 616.188C272.192 616.539 272.046 616.845 271.863 617.105C271.681 617.372 271.469 617.597 271.229 617.779C270.988 617.968 270.734 618.121 270.467 618.238C270.206 618.355 269.943 618.44 269.676 618.492C269.409 618.551 269.155 618.58 268.914 618.58H264.334V616.041H268.914C269.253 616.041 269.507 615.953 269.676 615.777C269.845 615.602 269.93 615.348 269.93 615.016V603.443H272.469V615.016ZM268.914 614H264.334C263.969 614 263.579 613.938 263.162 613.814C262.752 613.691 262.368 613.489 262.01 613.209C261.652 612.923 261.355 612.555 261.121 612.105C260.887 611.65 260.77 611.093 260.77 610.436V603.443H263.309V610.436C263.309 610.768 263.396 611.021 263.572 611.197C263.748 611.373 264.008 611.461 264.354 611.461H268.914V614ZM293.035 615.016C293.035 615.452 292.98 615.842 292.869 616.188C292.758 616.539 292.612 616.845 292.43 617.105C292.247 617.372 292.036 617.597 291.795 617.779C291.554 617.968 291.3 618.121 291.033 618.238C290.773 618.355 290.509 618.44 290.242 618.492C289.975 618.551 289.721 618.58 289.48 618.58H284.9V616.041H289.48C289.819 616.041 290.073 615.953 290.242 615.777C290.411 615.602 290.496 615.348 290.496 615.016V603.443H293.035V615.016ZM289.48 614H284.9C284.536 614 284.145 613.938 283.729 613.814C283.318 613.691 282.934 613.489 282.576 613.209C282.218 612.923 281.922 612.555 281.688 612.105C281.453 611.65 281.336 611.093 281.336 610.436V603.443H283.875V610.436C283.875 610.768 283.963 611.021 284.139 611.197C284.314 611.373 284.575 611.461 284.92 611.461H289.48V614ZM306.941 610.436C306.941 610.872 306.886 611.266 306.775 611.617C306.665 611.962 306.518 612.268 306.336 612.535C306.154 612.796 305.942 613.02 305.701 613.209C305.46 613.391 305.206 613.541 304.939 613.658C304.679 613.775 304.412 613.863 304.139 613.922C303.872 613.974 303.618 614 303.377 614H298.797C298.445 614 298.061 613.938 297.645 613.814C297.228 613.691 296.84 613.489 296.482 613.209C296.131 612.923 295.835 612.555 295.594 612.105C295.359 611.65 295.242 611.093 295.242 610.436V606.998C295.242 606.347 295.359 605.797 295.594 605.348C295.835 604.892 296.131 604.524 296.482 604.244C296.84 603.958 297.228 603.753 297.645 603.629C298.061 603.505 298.445 603.443 298.797 603.443H303.377C304.028 603.443 304.581 603.561 305.037 603.795C305.493 604.029 305.861 604.326 306.141 604.684C306.421 605.035 306.622 605.419 306.746 605.836C306.876 606.253 306.941 606.64 306.941 606.998V610.436ZM304.402 607.018C304.402 606.666 304.314 606.406 304.139 606.236C303.963 606.067 303.709 605.982 303.377 605.982H298.816C298.478 605.982 298.221 606.07 298.045 606.246C297.869 606.415 297.781 606.666 297.781 606.998V610.436C297.781 610.768 297.869 611.021 298.045 611.197C298.221 611.373 298.478 611.461 298.816 611.461H303.377C303.722 611.461 303.979 611.373 304.148 611.197C304.318 611.021 304.402 610.768 304.402 610.436V607.018ZM320.652 612.721C320.652 612.903 320.62 613.072 320.555 613.229C320.49 613.385 320.398 613.521 320.281 613.639C320.171 613.749 320.037 613.837 319.881 613.902C319.731 613.967 319.568 614 319.393 614H313.65C313.338 614 313.003 613.964 312.645 613.893C312.293 613.821 311.945 613.707 311.6 613.551C311.255 613.388 310.919 613.186 310.594 612.945C310.275 612.698 309.995 612.402 309.754 612.057C309.513 611.705 309.318 611.301 309.168 610.846C309.025 610.39 308.953 609.876 308.953 609.303V603.443H311.492V609.303C311.492 609.635 311.548 609.934 311.658 610.201C311.775 610.462 311.932 610.686 312.127 610.875C312.322 611.064 312.55 611.21 312.811 611.314C313.077 611.412 313.364 611.461 313.67 611.461H318.113V603.443H320.652V612.721ZM332.273 605.982H326.561C326.215 605.982 325.955 606.07 325.779 606.246C325.604 606.415 325.516 606.666 325.516 606.998V614H322.977V606.998C322.977 606.562 323.032 606.171 323.143 605.826C323.253 605.481 323.4 605.178 323.582 604.918C323.771 604.651 323.986 604.426 324.227 604.244C324.467 604.055 324.718 603.902 324.979 603.785C325.245 603.668 325.512 603.583 325.779 603.531C326.053 603.473 326.307 603.443 326.541 603.443H332.273V605.982ZM350.506 610.436C350.506 610.872 350.451 611.266 350.34 611.617C350.229 611.962 350.083 612.268 349.9 612.535C349.718 612.796 349.507 613.02 349.266 613.209C349.025 613.391 348.771 613.541 348.504 613.658C348.243 613.775 347.977 613.863 347.703 613.922C347.436 613.974 347.182 614 346.941 614H340.066V611.461H346.922C347.267 611.461 347.527 611.373 347.703 611.197C347.879 611.021 347.967 610.768 347.967 610.436C347.934 609.758 347.592 609.42 346.941 609.42H343.006C342.446 609.42 341.971 609.322 341.58 609.127C341.189 608.932 340.87 608.688 340.623 608.395C340.382 608.102 340.206 607.786 340.096 607.447C339.992 607.109 339.939 606.793 339.939 606.5C339.939 605.934 340.04 605.458 340.242 605.074C340.444 604.684 340.698 604.368 341.004 604.127C341.31 603.886 341.642 603.714 342 603.609C342.358 603.499 342.693 603.443 343.006 603.443H349.246V605.982H343.025C342.895 605.982 342.791 605.999 342.713 606.031C342.641 606.057 342.586 606.096 342.547 606.148C342.514 606.194 342.495 606.246 342.488 606.305C342.482 606.357 342.479 606.409 342.479 606.461C342.485 606.565 342.505 606.646 342.537 606.705C342.57 606.764 342.609 606.806 342.654 606.832C342.706 606.858 342.762 606.874 342.82 606.881C342.885 606.881 342.947 606.881 343.006 606.881H346.941C347.592 606.881 348.146 606.998 348.602 607.232C349.057 607.467 349.425 607.763 349.705 608.121C349.985 608.473 350.187 608.857 350.311 609.273C350.441 609.69 350.506 610.077 350.506 610.436ZM363.934 610.436C363.934 610.872 363.878 611.266 363.768 611.617C363.657 611.962 363.51 612.268 363.328 612.535C363.146 612.796 362.934 613.02 362.693 613.209C362.452 613.391 362.199 613.541 361.932 613.658C361.671 613.775 361.408 613.863 361.141 613.922C360.874 613.974 360.62 614 360.379 614H355.799V611.461H360.379C360.717 611.461 360.971 611.373 361.141 611.197C361.31 611.021 361.395 610.768 361.395 610.436V607.018C361.395 606.666 361.307 606.406 361.131 606.236C360.962 606.067 360.711 605.982 360.379 605.982H355.818C355.473 605.982 355.213 606.07 355.037 606.246C354.861 606.415 354.773 606.666 354.773 606.998V617.301H352.234V606.998C352.234 606.562 352.29 606.171 352.4 605.826C352.511 605.481 352.658 605.178 352.84 604.918C353.029 604.651 353.243 604.426 353.484 604.244C353.725 604.055 353.976 603.902 354.236 603.785C354.503 603.668 354.77 603.583 355.037 603.531C355.311 603.473 355.564 603.443 355.799 603.443H360.379C360.815 603.443 361.206 603.499 361.551 603.609C361.896 603.72 362.199 603.867 362.459 604.049C362.726 604.231 362.951 604.443 363.133 604.684C363.322 604.924 363.475 605.178 363.592 605.445C363.709 605.706 363.794 605.969 363.846 606.236C363.904 606.503 363.934 606.757 363.934 606.998V610.436ZM377 610.504C377 610.855 376.938 611.236 376.814 611.646C376.691 612.05 376.489 612.428 376.209 612.779C375.936 613.124 375.574 613.414 375.125 613.648C374.682 613.883 374.142 614 373.504 614H368.924C368.572 614 368.191 613.938 367.781 613.814C367.378 613.691 367 613.492 366.648 613.219C366.303 612.939 366.014 612.577 365.779 612.135C365.545 611.686 365.428 611.142 365.428 610.504C365.428 610.152 365.49 609.771 365.613 609.361C365.737 608.951 365.936 608.574 366.209 608.229C366.489 607.877 366.85 607.584 367.293 607.35C367.742 607.115 368.286 606.998 368.924 606.998H373.504V609.42H368.924C368.579 609.42 368.312 609.527 368.123 609.742C367.934 609.951 367.84 610.211 367.84 610.523C367.84 610.855 367.947 611.116 368.162 611.305C368.383 611.487 368.644 611.578 368.943 611.578H373.504C373.849 611.578 374.116 611.474 374.305 611.266C374.493 611.057 374.588 610.797 374.588 610.484V606.939C374.588 606.607 374.484 606.344 374.275 606.148C374.074 605.953 373.816 605.855 373.504 605.855H367.928V603.443H373.504C373.855 603.443 374.233 603.505 374.637 603.629C375.047 603.753 375.424 603.954 375.77 604.234C376.121 604.508 376.414 604.869 376.648 605.318C376.883 605.761 377 606.301 377 606.939V610.504ZM389.393 614H382.508C382.156 614 381.772 613.938 381.355 613.814C380.939 613.691 380.551 613.489 380.193 613.209C379.842 612.923 379.546 612.555 379.305 612.105C379.07 611.65 378.953 611.093 378.953 610.436V606.998C378.953 606.757 378.979 606.503 379.031 606.236C379.09 605.969 379.178 605.706 379.295 605.445C379.412 605.178 379.562 604.924 379.744 604.684C379.933 604.443 380.158 604.231 380.418 604.049C380.685 603.867 380.991 603.72 381.336 603.609C381.681 603.499 382.072 603.443 382.508 603.443H389.393V605.982H382.508C382.176 605.982 381.922 606.067 381.746 606.236C381.577 606.406 381.492 606.666 381.492 607.018V610.436C381.492 610.768 381.58 611.021 381.756 611.197C381.932 611.373 382.189 611.461 382.527 611.461H389.393V614ZM402.771 606.939C402.771 607.291 402.71 607.672 402.586 608.082C402.462 608.486 402.26 608.863 401.98 609.215C401.707 609.56 401.346 609.85 400.896 610.084C400.454 610.318 399.913 610.436 399.275 610.436H394.695V608.023H399.275C399.62 608.023 399.887 607.919 400.076 607.711C400.265 607.496 400.359 607.232 400.359 606.92C400.359 606.588 400.252 606.327 400.037 606.139C399.829 605.95 399.575 605.855 399.275 605.855H394.695C394.35 605.855 394.083 605.963 393.895 606.178C393.706 606.386 393.611 606.646 393.611 606.959V610.504C393.611 610.842 393.715 611.106 393.924 611.295C394.139 611.484 394.402 611.578 394.715 611.578H399.275V614H394.695C394.344 614 393.963 613.938 393.553 613.814C393.149 613.691 392.771 613.492 392.42 613.219C392.075 612.939 391.785 612.577 391.551 612.135C391.316 611.686 391.199 611.142 391.199 610.504V606.939C391.199 606.588 391.261 606.21 391.385 605.807C391.508 605.396 391.707 605.019 391.98 604.674C392.26 604.322 392.622 604.029 393.064 603.795C393.514 603.561 394.057 603.443 394.695 603.443H399.275C399.627 603.443 400.005 603.505 400.408 603.629C400.818 603.753 401.196 603.954 401.541 604.234C401.893 604.508 402.186 604.869 402.42 605.318C402.654 605.761 402.771 606.301 402.771 606.939ZM413.562 601.275H411.023V598.98H413.562V601.275ZM413.562 615.016C413.562 615.452 413.507 615.842 413.396 616.188C413.286 616.539 413.139 616.845 412.957 617.105C412.775 617.372 412.563 617.597 412.322 617.779C412.081 617.968 411.827 618.121 411.561 618.238C411.3 618.355 411.036 618.44 410.77 618.492C410.503 618.551 410.249 618.58 410.008 618.58H405.428V616.041H410.008C410.346 616.041 410.6 615.953 410.77 615.777C410.939 615.602 411.023 615.348 411.023 615.016V603.443H413.562V615.016ZM427.488 610.436C427.488 610.872 427.433 611.266 427.322 611.617C427.212 611.962 427.065 612.268 426.883 612.535C426.701 612.796 426.489 613.02 426.248 613.209C426.007 613.391 425.753 613.541 425.486 613.658C425.226 613.775 424.959 613.863 424.686 613.922C424.419 613.974 424.165 614 423.924 614H419.344C418.992 614 418.608 613.938 418.191 613.814C417.775 613.691 417.387 613.489 417.029 613.209C416.678 612.923 416.382 612.555 416.141 612.105C415.906 611.65 415.789 611.093 415.789 610.436V606.998C415.789 606.347 415.906 605.797 416.141 605.348C416.382 604.892 416.678 604.524 417.029 604.244C417.387 603.958 417.775 603.753 418.191 603.629C418.608 603.505 418.992 603.443 419.344 603.443H423.924C424.575 603.443 425.128 603.561 425.584 603.795C426.04 604.029 426.408 604.326 426.688 604.684C426.967 605.035 427.169 605.419 427.293 605.836C427.423 606.253 427.488 606.64 427.488 606.998V610.436ZM424.949 607.018C424.949 606.666 424.861 606.406 424.686 606.236C424.51 606.067 424.256 605.982 423.924 605.982H419.363C419.025 605.982 418.768 606.07 418.592 606.246C418.416 606.415 418.328 606.666 418.328 606.998V610.436C418.328 610.768 418.416 611.021 418.592 611.197C418.768 611.373 419.025 611.461 419.363 611.461H423.924C424.269 611.461 424.526 611.373 424.695 611.197C424.865 611.021 424.949 610.768 424.949 610.436V607.018ZM441.199 612.721C441.199 612.903 441.167 613.072 441.102 613.229C441.036 613.385 440.945 613.521 440.828 613.639C440.717 613.749 440.584 613.837 440.428 613.902C440.278 613.967 440.115 614 439.939 614H434.197C433.885 614 433.549 613.964 433.191 613.893C432.84 613.821 432.492 613.707 432.146 613.551C431.801 613.388 431.466 613.186 431.141 612.945C430.822 612.698 430.542 612.402 430.301 612.057C430.06 611.705 429.865 611.301 429.715 610.846C429.572 610.39 429.5 609.876 429.5 609.303V603.443H432.039V609.303C432.039 609.635 432.094 609.934 432.205 610.201C432.322 610.462 432.479 610.686 432.674 610.875C432.869 611.064 433.097 611.21 433.357 611.314C433.624 611.412 433.911 611.461 434.217 611.461H438.66V603.443H441.199V612.721ZM452.82 605.982H447.107C446.762 605.982 446.502 606.07 446.326 606.246C446.15 606.415 446.062 606.666 446.062 606.998V614H443.523V606.998C443.523 606.562 443.579 606.171 443.689 605.826C443.8 605.481 443.947 605.178 444.129 604.918C444.318 604.651 444.533 604.426 444.773 604.244C445.014 604.055 445.265 603.902 445.525 603.785C445.792 603.668 446.059 603.583 446.326 603.531C446.6 603.473 446.854 603.443 447.088 603.443H452.82V605.982ZM466.199 614H463.66V608.141C463.66 607.809 463.602 607.512 463.484 607.252C463.374 606.985 463.221 606.757 463.025 606.568C462.83 606.38 462.599 606.236 462.332 606.139C462.072 606.035 461.788 605.982 461.482 605.982H457.039V614H454.5V604.703C454.5 604.527 454.533 604.365 454.598 604.215C454.663 604.059 454.754 603.925 454.871 603.814C454.988 603.697 455.125 603.606 455.281 603.541C455.438 603.476 455.604 603.443 455.779 603.443H461.502C461.821 603.443 462.156 603.479 462.508 603.551C462.866 603.622 463.217 603.74 463.562 603.902C463.914 604.059 464.246 604.26 464.559 604.508C464.878 604.749 465.158 605.045 465.398 605.396C465.646 605.742 465.841 606.142 465.984 606.598C466.128 607.053 466.199 607.568 466.199 608.141V614ZM479.783 606.939C479.783 607.291 479.721 607.672 479.598 608.082C479.474 608.486 479.272 608.863 478.992 609.215C478.719 609.56 478.357 609.85 477.908 610.084C477.465 610.318 476.925 610.436 476.287 610.436H471.707V608.023H476.287C476.632 608.023 476.899 607.919 477.088 607.711C477.277 607.496 477.371 607.232 477.371 606.92C477.371 606.588 477.264 606.327 477.049 606.139C476.84 605.95 476.587 605.855 476.287 605.855H471.707C471.362 605.855 471.095 605.963 470.906 606.178C470.717 606.386 470.623 606.646 470.623 606.959V610.504C470.623 610.842 470.727 611.106 470.936 611.295C471.15 611.484 471.414 611.578 471.727 611.578H476.287V614H471.707C471.355 614 470.975 613.938 470.564 613.814C470.161 613.691 469.783 613.492 469.432 613.219C469.087 612.939 468.797 612.577 468.562 612.135C468.328 611.686 468.211 611.142 468.211 610.504V606.939C468.211 606.588 468.273 606.21 468.396 605.807C468.52 605.396 468.719 605.019 468.992 604.674C469.272 604.322 469.633 604.029 470.076 603.795C470.525 603.561 471.069 603.443 471.707 603.443H476.287C476.639 603.443 477.016 603.505 477.42 603.629C477.83 603.753 478.208 603.954 478.553 604.234C478.904 604.508 479.197 604.869 479.432 605.318C479.666 605.761 479.783 606.301 479.783 606.939ZM493.133 615.016C493.133 615.452 493.077 615.842 492.967 616.188C492.856 616.539 492.71 616.845 492.527 617.105C492.345 617.372 492.133 617.597 491.893 617.779C491.652 617.968 491.398 618.121 491.131 618.238C490.87 618.355 490.607 618.44 490.34 618.492C490.073 618.551 489.819 618.58 489.578 618.58H484.998V616.041H489.578C489.917 616.041 490.171 615.953 490.34 615.777C490.509 615.602 490.594 615.348 490.594 615.016V603.443H493.133V615.016ZM489.578 614H484.998C484.633 614 484.243 613.938 483.826 613.814C483.416 613.691 483.032 613.489 482.674 613.209C482.316 612.923 482.02 612.555 481.785 612.105C481.551 611.65 481.434 611.093 481.434 610.436V603.443H483.973V610.436C483.973 610.768 484.061 611.021 484.236 611.197C484.412 611.373 484.673 611.461 485.018 611.461H489.578V614Z" fill="#FF59A4"/>
<path d="M373.72 173.85C382.619 170.84 388.18 178.941 390.392 185.289C386.358 172.096 388.785 167.322 396.197 163.187C385.617 166.875 380.927 158.653 378.4 153.236C380.552 159.148 382.063 170.03 373.72 173.85Z" fill="#F1FF4F" stroke="#FF59A4" stroke-width="2" stroke-linejoin="round"/>
<path d="M344.125 236.171C350.337 229.124 359.198 233.373 364.281 237.772C354.205 228.348 353.928 223 358.291 215.72C350.959 224.191 342.793 219.404 337.902 215.968C342.716 220.02 349.451 228.699 344.125 236.171Z" fill="#F1FF4F" stroke="#FF59A4" stroke-width="2" stroke-linejoin="round"/>
<path d="M352.05 291.536C361.097 289.003 366.22 297.388 368.091 303.845C364.764 290.456 367.441 285.818 375.062 282.083C364.302 285.203 360.055 276.743 357.819 271.2C359.654 277.218 360.584 288.165 352.05 291.536Z" fill="#F1FF4F" stroke="#FF59A4" stroke-width="2" stroke-linejoin="round"/>
<path d="M381.674 411.713C390.721 409.18 395.844 417.566 397.715 424.022C394.388 410.633 397.065 405.995 404.686 402.26C393.926 405.38 389.679 396.92 387.443 391.377C389.278 397.395 390.208 408.342 381.674 411.713Z" fill="#F1FF4F" stroke="#FF59A4" stroke-width="2" stroke-linejoin="round"/>
<path d="M484.756 412.023C480.29 403.758 487.338 396.912 493.223 393.662C480.898 399.861 475.783 398.272 470.46 391.663C475.876 401.47 468.561 407.479 463.648 410.882C469.113 407.765 479.585 404.443 484.756 412.023Z" fill="#F1FF4F" stroke="#FF59A4" stroke-width="2" stroke-linejoin="round"/>
<path d="M295.024 531.738C290.558 523.473 297.607 516.627 303.491 513.377C291.166 519.576 286.052 517.988 280.728 511.378C286.144 521.185 278.83 527.194 273.916 530.597C279.382 527.48 289.853 524.158 295.024 531.738Z" fill="#F1FF4F" stroke="#FF59A4" stroke-width="2" stroke-linejoin="round"/>
<path d="M434.937 114.644C413.85 108.478 390.52 94.3175 380.365 85.4856C386.919 65.0379 408.779 39.5989 447.119 52.0263C485.459 64.4537 491.467 98.0056 487.851 112.292C476.721 115.468 457.584 121.267 434.937 114.644Z" fill="#00CEFF" stroke="#FF59A4" stroke-width="2"/>
<path d="M476.182 91.706C481.066 83.6811 490.533 86.3143 496.307 89.7563C484.738 82.2402 483.53 77.023 486.552 69.0922C480.815 78.7157 471.938 75.4305 466.521 72.9039C471.969 76.0512 480.119 83.4178 476.182 91.706Z" fill="#F1FF4F" stroke="#FF59A4" stroke-width="2" stroke-linejoin="round"/>
<path d="M332.249 85.2657C333.785 75.0243 365.388 81.4497 380.832 85.8919C393.248 94.2159 408.316 105.991 429.296 112.825C457.27 121.938 473.965 115.135 486.626 112.971C506.483 115.113 537.084 120.679 539.171 130.388C541.617 141.762 466.813 146.111 430.879 136.842C396.473 127.967 330.33 98.0674 332.249 85.2657Z" fill="#00CEFF" stroke="#FF59A4" stroke-width="2"/>
<path d="M525.426 97.52L516.321 107.989L502.1 108.301L514.334 116.048L510.889 127.358L519.417 120.468L527.087 126.229L524.867 116.021L534.387 114.19L524.751 109.357L525.426 97.52Z" fill="#F1FF4F"/>
<path d="M377.517 121.051C368.68 115.902 371.35 105.543 374.976 99.1861C367.036 111.935 361.382 113.359 352.686 110.234C363.281 116.278 359.89 126.01 357.252 131.959C360.564 125.963 368.413 116.938 377.517 121.051Z" fill="#F1FF4F"/>
<path d="M525.426 97.52L516.321 107.989L502.1 108.301L514.334 116.048L510.889 127.358L519.417 120.468L527.087 126.229L524.867 116.021L534.387 114.19L524.751 109.357L525.426 97.52Z" stroke="#FF59A4" stroke-width="2" stroke-linejoin="round"/>
<path d="M377.517 121.051C368.68 115.902 371.35 105.543 374.976 99.1861C367.036 111.935 361.382 113.359 352.686 110.234C363.281 116.278 359.89 126.01 357.252 131.959C360.564 125.963 368.413 116.938 377.517 121.051Z" stroke="#FF59A4" stroke-width="2" stroke-linejoin="round"/>
<path d="M431.534 61.2942C424.5 66.2869 415.176 92.5598 411.239 104.998C415.946 107.887 425.351 111.429 432.067 113.64C438.784 115.851 447.615 116.826 451.534 117.145C451.534 117.145 460.797 74.9624 449.926 63.7842C445.953 59.6989 441.736 68.2118 439.517 72.6922C439.541 67.0304 438.784 56.148 431.534 61.2942Z" fill="#F1FF4F" stroke="#FF59A4" stroke-width="2"/>
<path d="M444.371 90.3105C445.24 88.5599 444.481 87.5958 444.265 86.7132C442.634 86.0495 439.794 85.4225 438.013 87.8837C438.119 88.5178 438.591 89.6538 439.392 90.7492C440.193 91.8445 441.387 92.5626 441.855 92.8431C442.5 92.3879 443.619 91.8276 444.371 90.3105Z" fill="#FF59A4" stroke="#FF59A4" stroke-linecap="round"/>
<path d="M445.33 94.0943L445.524 95.6084" stroke="#FF59A4" stroke-linecap="round"/>
<path d="M442.25 93.0921L441.614 94.6137" stroke="#FF59A4" stroke-linecap="round"/>
<path d="M439.516 91.1108L438.302 91.9848" stroke="#FF59A4" stroke-linecap="round"/>
<path d="M445.022 86.8522C448.559 88.6065 448.256 91.0555 448.166 92.6652C446.937 93.2371 444.846 94.3265 441.785 92.8084C439.511 91.6802 437.963 88.9339 437.831 87.775C438.702 86.6848 441.486 85.098 445.022 86.8522Z" stroke="#FF59A4" stroke-linecap="round"/>
<path d="M429.624 84.6082C430.492 82.8576 429.734 81.8935 429.518 81.011C427.887 80.3472 425.047 79.7202 423.266 82.1814C423.372 82.8155 423.844 83.9516 424.645 85.0469C425.446 86.1423 426.64 86.8603 427.108 87.1408C427.753 86.6856 428.872 86.1254 429.624 84.6082Z" fill="#FF59A4" stroke="#FF59A4" stroke-linecap="round"/>
<path d="M430.583 88.392L430.777 89.9062" stroke="#FF59A4" stroke-linecap="round"/>
<path d="M427.503 87.3899L426.867 88.9114" stroke="#FF59A4" stroke-linecap="round"/>
<path d="M424.769 85.4085L423.554 86.2825" stroke="#FF59A4" stroke-linecap="round"/>
<path d="M430.275 81.15C433.812 82.9042 433.509 85.3532 433.419 86.9629C432.19 87.5348 430.099 88.6242 427.038 87.1061C424.764 85.978 423.216 83.2317 423.084 82.0727C423.955 80.9825 426.739 79.3957 430.275 81.15Z" stroke="#FF59A4" stroke-linecap="round"/>
<path d="M440.895 79.1335C441.763 77.3829 441.004 76.4188 440.789 75.5362C439.157 74.8725 436.318 74.2455 434.537 76.7067C434.642 77.3408 435.115 78.4768 435.916 79.5722C436.717 80.6675 437.91 81.3856 438.378 81.6661C439.024 81.2109 440.142 80.6506 440.895 79.1335Z" fill="#FF59A4" stroke="#FF59A4" stroke-linecap="round"/>
<path d="M441.854 82.9173L442.048 84.4314" stroke="#FF59A4" stroke-linecap="round"/>
<path d="M438.774 81.9151L438.137 83.4367" stroke="#FF59A4" stroke-linecap="round"/>
<path d="M436.039 79.9338L434.825 80.8078" stroke="#FF59A4" stroke-linecap="round"/>
<path d="M441.546 75.6752C445.082 77.4295 444.779 79.8784 444.69 81.4882C443.461 82.0601 441.369 83.1495 438.309 81.6314C436.035 80.5032 434.486 77.7569 434.355 76.598C435.225 75.5078 438.009 73.921 441.546 75.6752Z" stroke="#FF59A4" stroke-linecap="round"/>
<path d="M420.107 84.5887L413.16 80.5897" stroke="#FF59A4" stroke-linecap="round"/>
<path d="M419.7 87.9506L412.041 85.5862" stroke="#FF59A4" stroke-linecap="round"/>
<path d="M461.305 95.5501L453.312 94.9451" stroke="#FF59A4" stroke-linecap="round"/>
<path d="M459.949 100.814L452.554 97.7211" stroke="#FF59A4" stroke-linecap="round"/>
<rect x="492.992" y="116.761" width="7" height="7" transform="rotate(35.6198 492.992 116.761)" fill="#F1FF4F"/>
<rect x="409.842" y="50.7937" width="7" height="7" transform="rotate(35.6198 409.842 50.7937)" fill="#F1FF4F"/>
<rect x="342.398" y="93.5057" width="7" height="7" transform="rotate(35.6198 342.398 93.5057)" fill="#F1FF4F"/>
<rect x="332.475" y="95.2505" width="7" height="7" transform="rotate(35.6198 332.475 95.2505)" fill="#F1FF4F"/>
<rect x="352.01" y="92.0242" width="7" height="7" transform="rotate(35.6198 352.01 92.0242)" fill="#F1FF4F"/>
<rect x="397.397" y="83.7036" width="7" height="7" transform="rotate(35.6198 397.397 83.7036)" fill="#F1FF4F"/>
<rect x="404.798" y="111.149" width="7" height="7" transform="rotate(35.6198 404.798 111.149)" fill="#F1FF4F"/>
<rect x="414.409" y="109.667" width="7" height="7" transform="rotate(35.6198 414.409 109.667)" fill="#F1FF4F"/>
<rect x="394.875" y="112.894" width="7" height="7" transform="rotate(35.6198 394.875 112.894)" fill="#F1FF4F"/>
<rect x="433.127" y="135.136" width="7" height="7" transform="rotate(35.6198 433.127 135.136)" fill="#F1FF4F"/>
<rect x="442.738" y="133.654" width="7" height="7" transform="rotate(35.6198 442.738 133.654)" fill="#F1FF4F"/>
<rect x="423.204" y="136.881" width="7" height="7" transform="rotate(35.6198 423.204 136.881)" fill="#F1FF4F"/>
<rect x="488.188" y="90.9333" width="7" height="7" transform="rotate(35.6198 488.188 90.9333)" fill="#F1FF4F"/>
<rect x="483.226" y="118.375" width="7" height="7" transform="rotate(35.6198 483.226 118.375)" fill="#F1FF4F"/>
<rect x="473.458" y="119.988" width="7" height="7" transform="rotate(35.6198 473.458 119.988)" fill="#F1FF4F"/>
<rect x="478.409" y="92.5383" width="7" height="7" transform="rotate(35.6198 478.409 92.5383)" fill="#F1FF4F"/>
<rect x="419.452" y="49.3115" width="7" height="7" transform="rotate(35.6198 419.452 49.3115)" fill="#F1FF4F"/>
<rect x="429.22" y="47.6981" width="7" height="7" transform="rotate(35.6198 429.22 47.6981)" fill="#F1FF4F"/>
<rect x="387.63" y="85.317" width="7" height="7" transform="rotate(35.6198 387.63 85.317)" fill="#F1FF4F"/>
<rect x="377.707" y="87.0618" width="7" height="7" transform="rotate(35.6198 377.707 87.0618)" fill="#F1FF4F"/>
<path d="M248.783 155.076C260.757 132.676 285.916 110.126 310.739 132.187C335.563 154.248 313.89 182.894 299.951 194.459C309.199 199.012 311.613 208.85 302.678 214.455C292.899 220.589 286.118 211.574 285.298 201.708C281.539 207.697 275.43 211.043 269.706 206.197C266.131 203.171 264.251 198.61 263.792 194.215C258.543 194.45 252.801 193.197 249.216 190.162C243.426 185.261 244.912 174.375 251.134 171.273C241.644 174.7 232.211 173.987 230.283 162.999C228.264 151.493 243.568 147.823 248.783 155.076Z" fill="#FFFBEA"/>
<path d="M248.783 155.076C260.757 132.676 285.916 110.126 310.739 132.187C335.563 154.248 313.89 182.894 299.951 194.459C309.199 199.012 311.613 208.85 302.678 214.455C292.899 220.589 286.118 211.574 285.298 201.708C281.539 207.697 275.43 211.043 269.706 206.197C259.631 197.668 263.018 176.953 273.734 182.093C283.566 193.691 258.756 198.238 249.216 190.162C243.004 184.904 245.167 172.759 252.566 170.725C242.612 174.746 232.308 174.54 230.283 162.999C228.264 151.493 243.568 147.823 248.783 155.076Z" stroke="#5D4061" stroke-width="2" stroke-linecap="round"/>
<path d="M271.591 148.851C273.93 145.702 276.672 146.234 278.447 145.815C281.122 148.128 284.832 152.635 282.054 158.065C280.823 158.454 278.36 158.644 275.671 158.21C272.982 157.776 270.609 156.296 269.681 155.715C269.906 154.145 269.564 151.58 271.591 148.851Z" fill="#00CEFF" stroke="#5D4061" stroke-width="2" stroke-linecap="round"/>
<path d="M264.275 150.64L261.39 151.673" stroke="#5D4061" stroke-width="3" stroke-linecap="round"/>
<path d="M268.875 155.235L266.734 157.761" stroke="#5D4061" stroke-width="3" stroke-linecap="round"/>
<path d="M274.913 158.32L274.457 161.289" stroke="#5D4061" stroke-width="3" stroke-linecap="round"/>
<path d="M277.509 144.589C271.147 139.863 267.043 142.638 264.246 144.265C264.343 146.985 264.301 151.718 269.807 155.808C273.898 158.847 280.222 159.113 282.414 158.292C283.571 155.741 283.871 149.315 277.509 144.589Z" stroke="#5D4061" stroke-width="2" stroke-linecap="round"/>
<path d="M294.666 167.51C297.006 164.361 299.747 164.893 301.522 164.475C304.197 166.787 307.907 171.295 305.129 176.724C303.898 177.113 301.436 177.303 298.746 176.869C296.057 176.435 293.684 174.955 292.756 174.374C292.982 172.804 292.639 170.239 294.666 167.51Z" fill="#00CEFF" stroke="#5D4061" stroke-width="2" stroke-linecap="round"/>
<path d="M287.35 169.299L284.465 170.332" stroke="#5D4061" stroke-width="3" stroke-linecap="round"/>
<path d="M291.95 173.895L289.809 176.42" stroke="#5D4061" stroke-width="3" stroke-linecap="round"/>
<path d="M297.988 176.979L297.532 179.948" stroke="#5D4061" stroke-width="3" stroke-linecap="round"/>
<path d="M300.584 163.248C294.222 158.522 290.119 161.297 287.321 162.925C287.419 165.644 287.377 170.378 292.882 174.468C296.973 177.507 303.297 177.773 305.49 176.951C306.646 174.4 306.946 167.974 300.584 163.248Z" stroke="#5D4061" stroke-width="2" stroke-linecap="round"/>
<path d="M295.258 140.498C297.597 137.349 300.339 137.881 302.114 137.463C304.789 139.775 308.499 144.282 305.721 149.712C304.49 150.101 302.027 150.291 299.338 149.857C296.649 149.423 294.276 147.943 293.348 147.362C293.573 145.792 293.231 143.227 295.258 140.498Z" fill="#00CEFF" stroke="#5D4061" stroke-width="2" stroke-linecap="round"/>
<path d="M287.942 142.287L285.057 143.32" stroke="#5D4061" stroke-width="3" stroke-linecap="round"/>
<path d="M292.542 146.883L290.401 149.408" stroke="#5D4061" stroke-width="3" stroke-linecap="round"/>
<path d="M298.58 149.967L298.124 152.936" stroke="#5D4061" stroke-width="3" stroke-linecap="round"/>
<path d="M301.176 136.236C294.814 131.51 290.71 134.285 287.913 135.913C288.01 138.632 287.968 143.366 293.474 147.455C297.565 150.495 303.889 150.761 306.081 149.939C307.238 147.388 307.538 140.962 301.176 136.236Z" stroke="#5D4061" stroke-width="2" stroke-linecap="round"/>
<path d="M166.558 241.916L156.44 221.87L164.529 215.546L186.267 249.891L176.676 256.412C157.305 267.298 149.533 253.822 154.056 247.106C156.937 242.828 162.753 241.036 166.558 241.916Z" fill="#F1FF4F" stroke="#5D4061" stroke-width="2" stroke-linecap="round"/>
<path d="M195.636 227.239L188.016 217.693L177.049 214.828L190.347 247.832L201.289 243.989C221.552 234.869 215.326 220.613 207.237 220.263C202.084 220.04 197.188 223.655 195.636 227.239Z" fill="#F1FF4F" stroke="#5D4061" stroke-width="2" stroke-linecap="round"/>
<path d="M151.482 146.529C152.712 142.806 157.552 141.883 160.066 144.891L172.77 160.091C174.093 161.673 176.045 162.592 178.106 162.602L197.917 162.701C201.837 162.72 204.21 167.037 202.127 170.358L191.596 187.138C190.5 188.884 190.23 191.025 190.857 192.989L196.885 211.86C198.078 215.594 194.706 219.186 190.904 218.23L171.691 213.4C169.692 212.897 167.571 213.302 165.897 214.505L149.813 226.07C146.63 228.358 142.172 226.26 141.906 222.349L140.563 202.585C140.423 200.528 139.384 198.637 137.722 197.416L121.752 185.693C118.593 183.373 119.21 178.485 122.847 177.023L141.23 169.638C143.143 168.869 144.62 167.296 145.267 165.338L151.482 146.529Z" fill="#F1FF4F" stroke="#5D4061" stroke-width="2"/>
<path d="M159.947 186.495C158.513 181.57 161.233 179.133 162.198 176.952C166.721 175.991 174.348 175.684 177.813 182.867C177.247 184.457 175.5 187.174 172.924 189.634C170.347 192.094 166.931 193.398 165.593 193.906C164.134 192.431 161.191 190.763 159.947 186.495Z" fill="#00CEFF" stroke="#5D4061" stroke-width="2" stroke-linecap="round"/>
<path d="M156.034 195.533L154.832 199.356" stroke="#5D4061" stroke-width="3" stroke-linecap="round"/>
<path d="M164.456 194.368L165.397 198.594" stroke="#5D4061" stroke-width="3" stroke-linecap="round"/>
<path d="M172.438 190.511L175.172 193.331" stroke="#5D4061" stroke-width="3" stroke-linecap="round"/>
<path d="M160.179 176.961C150.229 179.859 149.88 186.328 149.367 190.529C152.279 192.575 157.179 196.357 165.789 193.849C172.188 191.986 177.459 185.605 178.334 182.671C176.589 179.451 170.129 174.063 160.179 176.961Z" stroke="#5D4061" stroke-width="2" stroke-linecap="round"/>
<path d="M334.559 520.916L324.441 500.87L332.53 494.546L354.268 528.891L344.677 535.412C325.306 546.298 317.534 532.822 322.057 526.106C324.938 521.828 330.754 520.036 334.559 520.916Z" fill="#F1FF4F" stroke="#5D4061" stroke-width="2" stroke-linecap="round"/>
<path d="M363.636 506.239L356.016 496.693L345.049 493.828L358.347 526.832L369.289 522.989C389.552 513.869 383.326 499.613 375.237 499.263C370.084 499.04 365.188 502.655 363.636 506.239Z" fill="#F1FF4F" stroke="#5D4061" stroke-width="2" stroke-linecap="round"/>
<path d="M319.483 425.529C320.713 421.806 325.553 420.883 328.067 423.891L340.771 439.091C342.093 440.673 344.045 441.592 346.107 441.602L365.918 441.701C369.838 441.72 372.211 446.037 370.128 449.358L359.597 466.138C358.501 467.884 358.231 470.025 358.858 471.989L364.886 490.86C366.079 494.594 362.707 498.186 358.905 497.23L339.692 492.4C337.693 491.897 335.572 492.302 333.898 493.505L317.814 505.07C314.631 507.358 310.173 505.26 309.907 501.349L308.564 481.585C308.424 479.528 307.385 477.637 305.723 476.416L289.753 464.693C286.594 462.373 287.211 457.485 290.848 456.023L309.231 448.638C311.144 447.869 312.621 446.296 313.268 444.338L319.483 425.529Z" fill="#F1FF4F" stroke="#5D4061" stroke-width="2"/>
<path d="M327.947 465.495C326.513 460.57 329.233 458.133 330.198 455.952C334.721 454.991 342.348 454.684 345.813 461.867C345.247 463.457 343.5 466.174 340.924 468.634C338.347 471.094 334.931 472.398 333.593 472.906C332.134 471.431 329.191 469.763 327.947 465.495Z" fill="#00CEFF" stroke="#5D4061" stroke-width="2" stroke-linecap="round"/>
<path d="M324.034 474.533L322.832 478.356" stroke="#5D4061" stroke-width="3" stroke-linecap="round"/>
<path d="M332.456 473.368L333.397 477.594" stroke="#5D4061" stroke-width="3" stroke-linecap="round"/>
<path d="M340.438 469.511L343.172 472.331" stroke="#5D4061" stroke-width="3" stroke-linecap="round"/>
<path d="M328.179 455.962C318.229 458.859 317.88 465.328 317.367 469.529C320.279 471.575 325.179 475.357 333.789 472.849C340.188 470.986 345.459 464.605 346.334 461.671C344.589 458.451 338.129 453.064 328.179 455.962Z" stroke="#5D4061" stroke-width="2" stroke-linecap="round"/>
<path d="M171.308 332.025L186.796 304.07L198.608 310.854L175.48 352.873L164.761 348.446C145.019 338.248 152.004 324.348 160.099 324.434C165.257 324.49 169.952 328.363 171.308 332.025Z" fill="#F1FF4F" stroke="#5D4061" stroke-width="2" stroke-linecap="round"/>
<path d="M199.698 348.855L216.04 321.391L204.227 314.606L179.589 355.757L188.814 362.785C207.571 374.699 216.057 361.661 211.903 354.712C209.256 350.285 203.545 348.182 199.698 348.855Z" fill="#F1FF4F" stroke="#5D4061" stroke-width="2" stroke-linecap="round"/>
<rect x="185.959" y="268.365" width="69" height="30" rx="15" transform="rotate(29.8702 185.959 268.365)" fill="#F1FF4F" stroke="#5D4061" stroke-width="2"/>
<path d="M207.413 295.962C209.478 292.044 212.256 292.16 214.164 291.385C217.548 293.502 222.468 297.889 220.308 304.427C219.003 305.074 216.288 305.713 213.212 305.694C210.136 305.675 207.233 304.435 206.098 303.947C206.077 302.156 205.623 299.358 207.413 295.962Z" fill="#00CEFF" stroke="#5D4061" stroke-width="2" stroke-linecap="round"/>
<path d="M199.187 299.221L196.147 300.873" stroke="#5D4061" stroke-width="3" stroke-linecap="round"/>
<path d="M205.115 303.552L203.163 306.74" stroke="#5D4061" stroke-width="3" stroke-linecap="round"/>
<path d="M212.383 305.947L212.389 309.339" stroke="#5D4061" stroke-width="3" stroke-linecap="round"/>
<path d="M212.905 290.179C204.989 286.007 200.891 289.814 198.051 292.114C198.631 295.131 199.403 300.419 206.254 304.03C211.344 306.712 218.445 305.915 220.749 304.618C221.598 301.573 220.821 294.351 212.905 290.179Z" stroke="#5D4061" stroke-width="2" stroke-linecap="round"/>
<path d="M221.384 500.202L210.491 498.94L210.171 509.23C205.075 505.412 193.497 505.101 193.197 511.327C192.787 519.816 209.942 522.294 219.628 520.7L221.384 500.202Z" fill="#F1FF4F" stroke="#5D4061" stroke-width="2" stroke-linecap="round"/>
<path d="M246.857 473.23L243.695 483.73L253.767 485.858C249.11 490.201 246.763 501.543 252.839 502.936C261.123 504.836 266.586 488.386 266.725 478.571L246.857 473.23Z" fill="#F1FF4F" stroke="#5D4061" stroke-width="2" stroke-linecap="round"/>
<path d="M232.127 499.251C201.53 505.283 154.126 478.464 193.782 444.667C243.352 402.42 263.28 471.894 232.127 499.251Z" fill="#F1FF4F" stroke="#5D4061" stroke-width="2" stroke-linecap="round"/>
<path d="M191.694 446.538C186.629 446.893 180.641 450.421 179.001 445.365C177.255 439.984 189.846 435.622 193.221 437.448C187.818 434.229 179.911 428.44 186.842 424.426C193.748 420.427 195.361 429.897 195.883 436.006C195.662 432.686 203.154 419.607 208.275 422.664C213.427 425.74 205.446 433.087 203.849 436.907L191.694 446.538Z" fill="#F1FF4F"/>
<path d="M191.694 446.538C186.629 446.893 180.641 450.421 179.001 445.365C177.255 439.984 189.846 435.622 193.221 437.448C187.818 434.229 179.911 428.44 186.842 424.426C193.774 420.412 195.373 429.97 195.889 436.076C195.555 432.875 203.118 419.585 208.275 422.664C213.427 425.74 205.446 433.087 203.849 436.907L191.694 446.538Z" stroke="#5D4061" stroke-width="2" stroke-linecap="round"/>
<path d="M211.022 468.189C207.173 464.798 208.165 461.283 207.813 458.925C211.117 455.691 217.394 451.347 224.167 455.558C224.54 457.203 224.52 460.434 223.662 463.891C222.804 467.348 220.617 470.279 219.759 471.425C217.738 470.96 214.358 471.128 211.022 468.189Z" fill="#00CEFF" stroke="#5D4061" stroke-width="2" stroke-linecap="round"/>
<path d="M212.557 477.918L213.59 481.79" stroke="#5D4061" stroke-width="3" stroke-linecap="round"/>
<path d="M219.047 472.423L222.105 475.488" stroke="#5D4061" stroke-width="3" stroke-linecap="round"/>
<path d="M223.722 464.892L227.541 465.809" stroke="#5D4061" stroke-width="3" stroke-linecap="round"/>
<path d="M206.112 460.015C199.261 467.79 202.431 473.44 204.248 477.262C207.802 477.431 213.966 478.001 219.894 471.272C224.3 466.271 225.334 458.06 224.502 455.113C221.304 453.329 212.963 452.239 206.112 460.015Z" stroke="#5D4061" stroke-width="2" stroke-linecap="round"/>
<path d="M211.022 468.189C207.173 464.798 208.165 461.283 207.813 458.925C211.117 455.691 217.394 451.347 224.167 455.558C224.54 457.203 224.52 460.434 223.662 463.891C222.804 467.348 220.617 470.279 219.759 471.425C217.738 470.96 214.358 471.128 211.022 468.189Z" fill="#00CEFF" stroke="#5D4061" stroke-width="2" stroke-linecap="round"/>
<path d="M212.557 477.918L213.59 481.79" stroke="#5D4061" stroke-width="3" stroke-linecap="round"/>
<path d="M219.047 472.423L222.105 475.488" stroke="#5D4061" stroke-width="3" stroke-linecap="round"/>
<path d="M223.722 464.892L227.541 465.809" stroke="#5D4061" stroke-width="3" stroke-linecap="round"/>
<path d="M206.112 460.015C199.261 467.79 202.431 473.44 204.248 477.262C207.802 477.431 213.966 478.001 219.894 471.272C224.3 466.271 225.334 458.06 224.502 455.113C221.304 453.329 212.963 452.239 206.112 460.015Z" stroke="#5D4061" stroke-width="2" stroke-linecap="round"/>
<path d="M313.508 330.705C328.753 326.237 344.232 333.406 348.281 346.377C352.329 359.349 343.544 373.63 328.299 378.099C313.054 382.568 297.573 375.399 293.525 362.428C289.477 349.456 298.263 335.174 313.508 330.705Z" fill="#F1FF4F" stroke="#5D4061" stroke-width="2"/>
<path d="M264.125 351.445C249.46 357.442 242.329 372.52 247.833 384.989C253.337 397.457 269.564 402.983 284.229 396.986C298.894 390.988 306.024 375.91 300.52 363.442C295.016 350.974 278.79 345.447 264.125 351.445Z" fill="#F1FF4F" stroke="#5D4061" stroke-width="2"/>
<path d="M266.599 349.933L270.828 315.143L305.366 333.512" stroke="#5D4061" stroke-width="3" stroke-linecap="round"/>
<path d="M259.167 318.612L281.001 307.829" stroke="#5D4061" stroke-width="3" stroke-linecap="round"/>
<path d="M264.176 417.43L264.672 399.157L259.897 397.232L254.999 394.316L254.464 406.174C249.283 402.47 237.702 402.419 237.541 408.65C237.321 417.147 254.528 419.24 264.176 417.43Z" fill="#F1FF4F" stroke="#5D4061" stroke-width="2" stroke-linecap="round"/>
<path d="M300.208 412.139L292.188 393.535C292.188 393.535 289.488 395.296 287.474 396.138C285.663 396.895 282.698 398.245 282.698 398.245L286.524 406.331C280.24 405.297 269.827 410.366 272.435 416.028C275.991 423.747 292.352 418.025 300.208 412.139Z" fill="#F1FF4F" stroke="#5D4061" stroke-width="2" stroke-linecap="round"/>
<path d="M345.275 390.844L338.531 373.215C338.531 373.215 341.195 371.094 342.625 369.681C344.209 368.117 346.1 365.217 346.1 365.217L350.908 377.086C354.643 371.928 365.609 368.2 367.741 374.057C370.648 382.044 354.998 389.495 345.275 390.844Z" fill="#F1FF4F" stroke="#5D4061" stroke-width="2" stroke-linecap="round"/>
<path d="M313.783 399.126L313.572 378.868C313.572 378.868 316.754 379.383 318.937 379.336C320.899 379.294 324.157 379.326 324.157 379.326L323.938 388.268C329.263 384.775 340.837 385.187 340.748 391.42C340.627 399.919 323.351 401.321 313.783 399.126Z" fill="#F1FF4F" stroke="#5D4061" stroke-width="2" stroke-linecap="round"/>
<path d="M260.797 379.01C259.586 376.209 260.848 374.767 261.257 373.408C263.855 372.506 268.336 371.761 270.912 375.745C270.696 376.725 269.866 378.459 268.527 380.102C267.188 381.744 265.268 382.767 264.515 383.166C263.545 382.403 261.847 381.438 260.797 379.01Z" fill="#00CEFF" stroke="#5D4061" stroke-width="2" stroke-linecap="round"/>
<path d="M258.992 384.833L258.566 387.179" stroke="#5D4061" stroke-width="2" stroke-linecap="round"/>
<path d="M263.879 383.523L264.747 385.948" stroke="#5D4061" stroke-width="2" stroke-linecap="round"/>
<path d="M268.305 380.655L270.128 382.118" stroke="#5D4061" stroke-width="2" stroke-linecap="round"/>
<path d="M260.066 373.563C254.406 376.01 254.679 379.854 254.687 382.372C256.557 383.365 259.73 385.235 264.627 383.118C268.267 381.544 270.907 377.388 271.206 375.591C269.938 373.819 265.725 371.116 260.066 373.563Z" stroke="#5D4061" stroke-width="2" stroke-linecap="round"/>
<path d="M281.886 370.335C280.675 367.534 281.937 366.092 282.346 364.733C284.944 363.831 289.425 363.086 292.001 367.07C291.785 368.05 290.955 369.784 289.616 371.427C288.277 373.069 286.356 374.092 285.604 374.491C284.634 373.728 282.936 372.763 281.886 370.335Z" fill="#00CEFF" stroke="#5D4061" stroke-width="2" stroke-linecap="round"/>
<path d="M280.081 376.158L279.654 378.504" stroke="#5D4061" stroke-width="2" stroke-linecap="round"/>
<path d="M284.968 374.848L285.836 377.273" stroke="#5D4061" stroke-width="2" stroke-linecap="round"/>
<path d="M289.394 371.98L291.217 373.443" stroke="#5D4061" stroke-width="2" stroke-linecap="round"/>
<path d="M281.155 364.888C275.495 367.335 275.768 371.179 275.776 373.697C277.646 374.69 280.819 376.56 285.716 374.443C289.356 372.869 291.995 368.713 292.295 366.916C291.027 365.144 286.814 362.441 281.155 364.888Z" stroke="#5D4061" stroke-width="2" stroke-linecap="round"/>
<path d="M335.242 347.384C334.065 344.568 332.151 344.477 330.889 343.828C328.436 345.074 324.791 347.783 325.872 352.403C326.728 352.927 328.552 353.532 330.665 353.707C332.777 353.883 334.845 353.21 335.655 352.945C335.779 351.717 336.262 349.824 335.242 347.384Z" fill="#00CEFF" stroke="#5D4061" stroke-width="2" stroke-linecap="round"/>
<path d="M340.687 350.125L342.672 351.445" stroke="#5D4061" stroke-width="2" stroke-linecap="round"/>
<path d="M336.354 352.733L337.498 355.041" stroke="#5D4061" stroke-width="2" stroke-linecap="round"/>
<path d="M331.218 353.932L331.006 356.259" stroke="#5D4061" stroke-width="2" stroke-linecap="round"/>
<path d="M331.827 343.077C337.515 340.7 340.095 343.564 341.902 345.316C341.32 347.352 340.465 350.934 335.542 352.992C331.884 354.521 327.059 353.538 325.557 352.507C325.161 350.364 326.138 345.455 331.827 343.077Z" stroke="#5D4061" stroke-width="2" stroke-linecap="round"/>
<path d="M313.283 357.175C312.106 354.359 310.192 354.268 308.93 353.619C306.477 354.865 302.832 357.574 303.913 362.194C304.769 362.718 306.593 363.323 308.706 363.498C310.818 363.674 312.886 363.001 313.696 362.736C313.82 361.508 314.303 359.615 313.283 357.175Z" fill="#00CEFF" stroke="#5D4061" stroke-width="2" stroke-linecap="round"/>
<path d="M318.729 359.916L320.714 361.236" stroke="#5D4061" stroke-width="2" stroke-linecap="round"/>
<path d="M314.396 362.524L315.54 364.832" stroke="#5D4061" stroke-width="2" stroke-linecap="round"/>
<path d="M309.259 363.723L309.047 366.05" stroke="#5D4061" stroke-width="2" stroke-linecap="round"/>
<path d="M309.869 352.868C315.557 350.491 318.137 353.355 319.944 355.108C319.362 357.143 318.507 360.725 313.584 362.783C309.926 364.312 305.101 363.329 303.599 362.298C303.203 360.155 304.18 355.246 309.869 352.868Z" stroke="#5D4061" stroke-width="2" stroke-linecap="round"/>
<path d="M414.376 257.002L401.923 227.569L414.549 222.455L433.359 266.575L423.264 272.283C403.06 281.533 396.427 267.462 401.488 261.143C404.712 257.117 410.657 255.811 414.376 257.002Z" fill="#F1FF4F" stroke="#5D4061" stroke-width="2" stroke-linecap="round"/>
<path d="M445.135 245.034L433.594 215.232L420.969 220.346L438.164 265.12L449.386 262.193C470.333 254.776 465.304 240.055 457.272 239.039C452.154 238.392 446.977 241.591 445.135 245.034Z" fill="#F1FF4F" stroke="#5D4061" stroke-width="2" stroke-linecap="round"/>
<rect x="373.302" y="206.206" width="69" height="30" rx="15" transform="rotate(-22.0501 373.302 206.206)" fill="#F1FF4F" stroke="#5D4061" stroke-width="2"/>
<path d="M408.257 206.34C406.446 202.298 408.25 200.182 408.818 198.202C412.571 196.844 419.059 195.677 422.873 201.41C422.577 202.837 421.405 205.368 419.494 207.777C417.582 210.186 414.815 211.706 413.731 212.3C412.308 211.211 409.826 209.843 408.257 206.34Z" fill="#00CEFF" stroke="#5D4061" stroke-width="2" stroke-linecap="round"/>
<path d="M405.749 214.824L405.174 218.236" stroke="#5D4061" stroke-width="3" stroke-linecap="round"/>
<path d="M412.814 212.829L414.12 216.332" stroke="#5D4061" stroke-width="3" stroke-linecap="round"/>
<path d="M419.182 208.585L421.855 210.673" stroke="#5D4061" stroke-width="3" stroke-linecap="round"/>
<path d="M407.092 198.45C398.926 202.108 399.394 207.681 399.454 211.335C402.186 212.74 406.825 215.393 413.892 212.228C419.143 209.875 422.895 203.793 423.296 201.18C421.422 198.634 415.258 194.792 407.092 198.45Z" stroke="#5D4061" stroke-width="2" stroke-linecap="round"/>
<path d="M409.322 350.924L405.995 340.475L396.483 344.413C397.87 338.198 393.395 327.515 387.595 329.801C379.688 332.916 384.48 349.574 389.914 357.749L409.322 350.924Z" fill="#F1FF4F" stroke="#5D4061" stroke-width="2" stroke-linecap="round"/>
<path d="M444.381 363.061L433.509 364.493L435.708 374.551C429.835 372.09 418.531 374.612 419.758 380.723C421.431 389.056 438.673 387.276 447.678 383.368L444.381 363.061Z" fill="#F1FF4F" stroke="#5D4061" stroke-width="2" stroke-linecap="round"/>
<path d="M414.605 360.327C396.53 334.913 401.496 280.676 448.606 302.936C507.493 330.761 452.349 377.483 414.605 360.327Z" fill="#F1FF4F" stroke="#5D4061" stroke-width="2" stroke-linecap="round"/>
<path d="M446.042 301.802C443.637 297.331 437.959 293.322 441.894 289.749C446.082 285.946 455.233 295.631 454.956 299.458C455.67 293.209 457.698 283.622 464.206 288.291C470.689 292.942 462.719 298.305 457.365 301.292C460.3 299.726 475.303 301.181 474.621 307.106C473.935 313.066 463.956 308.81 459.818 308.924L446.042 301.802Z" fill="#F1FF4F"/>
<path d="M446.042 301.802C443.637 297.331 437.959 293.322 441.894 289.749C446.082 285.946 455.233 295.631 454.956 299.458C455.67 293.209 457.698 283.622 464.206 288.291C470.714 292.96 462.658 298.346 457.303 301.326C460.085 299.706 475.308 301.138 474.621 307.106C473.935 313.066 463.956 308.81 459.818 308.924L446.042 301.802Z" stroke="#5D4061" stroke-width="2" stroke-linecap="round"/>
<path d="M434.247 328.321C435.756 323.418 439.368 322.878 441.374 321.587C445.679 323.27 452.22 327.207 451.165 335.112C449.818 336.129 446.865 337.438 443.361 338.077C439.856 338.715 436.286 337.926 434.888 337.615C434.481 335.582 432.939 332.57 434.247 328.321Z" fill="#00CEFF" stroke="#5D4061" stroke-width="2" stroke-linecap="round"/>
<path d="M426.009 333.719L422.904 336.252" stroke="#5D4061" stroke-width="3" stroke-linecap="round"/>
<path d="M433.685 337.376L432.148 341.424" stroke="#5D4061" stroke-width="3" stroke-linecap="round"/>
<path d="M442.473 338.543L443.207 342.401" stroke="#5D4061" stroke-width="3" stroke-linecap="round"/>
<path d="M439.681 320.484C429.777 317.435 425.929 322.647 423.192 325.874C424.498 329.184 426.513 335.037 435.084 337.676C441.453 339.636 449.364 337.205 451.708 335.235C452.021 331.586 449.586 323.534 439.681 320.484Z" stroke="#5D4061" stroke-width="2" stroke-linecap="round"/>
<path d="M434.247 328.321C435.756 323.418 439.368 322.878 441.374 321.587C445.679 323.27 452.22 327.207 451.165 335.112C449.818 336.129 446.865 337.438 443.361 338.077C439.856 338.715 436.286 337.926 434.888 337.615C434.481 335.582 432.939 332.57 434.247 328.321Z" fill="#00CEFF" stroke="#5D4061" stroke-width="2" stroke-linecap="round"/>
<path d="M426.009 333.719L422.904 336.252" stroke="#5D4061" stroke-width="3" stroke-linecap="round"/>
<path d="M433.685 337.376L432.148 341.424" stroke="#5D4061" stroke-width="3" stroke-linecap="round"/>
<path d="M442.473 338.543L443.207 342.401" stroke="#5D4061" stroke-width="3" stroke-linecap="round"/>
<path d="M439.681 320.484C429.777 317.435 425.929 322.647 423.192 325.874C424.498 329.184 426.513 335.037 435.084 337.676C441.453 339.636 449.364 337.205 451.708 335.235C452.021 331.586 449.586 323.534 439.681 320.484Z" stroke="#5D4061" stroke-width="2" stroke-linecap="round"/>
<path d="M427.861 494.682C414.661 472.982 408.035 439.852 439.653 429.694C471.271 419.536 484.918 452.763 487.79 470.646C496.412 464.998 506.111 467.922 506.394 478.465C506.704 490.005 495.493 491.26 486.581 486.95C489.827 493.232 489.601 500.193 482.518 502.658C478.095 504.198 473.212 503.498 469.194 501.658C466.727 506.298 462.729 510.605 458.293 512.149C451.128 514.643 442.51 507.828 443.003 500.893C441.129 510.808 435.718 518.567 425.277 514.641C414.342 510.529 418.963 495.485 427.861 494.682Z" fill="#F1FF4F"/>
<path d="M427.861 494.682C414.661 472.982 408.035 439.852 439.653 429.694C471.271 419.536 484.918 452.763 487.79 470.646C496.412 464.998 506.111 467.922 506.394 478.465C506.704 490.005 495.493 491.26 486.581 486.95C489.827 493.232 489.601 500.193 482.518 502.658C470.052 506.997 453.936 493.548 463.811 486.934C478.797 484.365 470.098 508.04 458.293 512.149C450.607 514.824 441.249 506.787 443.259 499.381C441.661 509.997 436.244 518.765 425.277 514.641C414.342 510.529 418.963 495.485 427.861 494.682Z" stroke="#5D4061" stroke-width="2" stroke-linecap="round"/>
<path d="M434.096 471.877C432.574 468.262 434.427 466.172 434.968 464.43C438.319 463.303 444.087 462.4 447.35 467.553C447.059 468.81 445.971 471.028 444.23 473.123C442.489 475.218 440.008 476.508 439.036 477.012C437.798 476.02 435.415 475.011 434.096 471.877Z" fill="#00CEFF" stroke="#5D4061" stroke-width="2" stroke-linecap="round"/>
<path d="M431.916 479.087L431.339 482.097" stroke="#5D4061" stroke-width="3" stroke-linecap="round"/>
<path d="M438.213 477.463L439.299 480.59" stroke="#5D4061" stroke-width="3" stroke-linecap="round"/>
<path d="M443.939 473.832L446.263 475.734" stroke="#5D4061" stroke-width="3" stroke-linecap="round"/>
<path d="M433.436 464.615C426.131 467.69 426.434 472.634 426.414 475.871C428.805 477.17 432.86 479.613 439.181 476.951C443.878 474.974 447.322 469.664 447.729 467.358C446.121 465.065 440.74 461.54 433.436 464.615Z" stroke="#5D4061" stroke-width="2" stroke-linecap="round"/>
<path d="M461.896 461.495C460.374 457.879 462.226 455.789 462.768 454.048C466.119 452.921 471.887 452.017 475.15 457.17C474.859 458.428 473.771 460.645 472.03 462.74C470.288 464.835 467.808 466.126 466.836 466.63C465.598 465.637 463.215 464.628 461.896 461.495Z" fill="#00CEFF" stroke="#5D4061" stroke-width="2" stroke-linecap="round"/>
<path d="M459.716 468.705L459.139 471.714" stroke="#5D4061" stroke-width="3" stroke-linecap="round"/>
<path d="M466.013 467.08L467.099 470.208" stroke="#5D4061" stroke-width="3" stroke-linecap="round"/>
<path d="M471.739 463.449L474.063 465.352" stroke="#5D4061" stroke-width="3" stroke-linecap="round"/>
<path d="M461.235 454.232C453.931 457.307 454.234 462.252 454.213 465.488C456.605 466.787 460.659 469.23 466.98 466.569C471.678 464.591 475.122 459.281 475.529 456.975C473.921 454.683 468.54 451.157 461.235 454.232Z" stroke="#5D4061" stroke-width="2" stroke-linecap="round"/>
<path d="M438.938 447.25C437.416 443.634 439.268 441.544 439.81 439.803C443.161 438.676 448.929 437.773 452.192 442.926C451.901 444.183 450.813 446.401 449.072 448.496C447.33 450.591 444.85 451.881 443.878 452.385C442.64 451.392 440.257 450.383 438.938 447.25Z" fill="#00CEFF" stroke="#5D4061" stroke-width="2" stroke-linecap="round"/>
<path d="M436.758 454.46L436.181 457.47" stroke="#5D4061" stroke-width="3" stroke-linecap="round"/>
<path d="M443.055 452.835L444.141 455.963" stroke="#5D4061" stroke-width="3" stroke-linecap="round"/>
<path d="M448.781 449.205L451.105 451.107" stroke="#5D4061" stroke-width="3" stroke-linecap="round"/>
<path d="M438.277 439.987C430.973 443.063 431.276 448.007 431.255 451.244C433.647 452.542 437.701 454.985 444.022 452.324C448.72 450.347 452.164 445.037 452.571 442.731C450.963 440.438 445.582 436.912 438.277 439.987Z" stroke="#5D4061" stroke-width="2" stroke-linecap="round"/>
</g>
<defs>
<linearGradient id="paint0_linear_478_5943" x1="258.761" y1="61.4532" x2="318.831" y2="588.024" gradientUnits="userSpaceOnUse">
<stop stop-color="#FF59A4"/>
<stop offset="1" stop-color="#F1FF4F"/>
</linearGradient>
<linearGradient id="paint1_linear_478_5943" x1="311.739" y1="-0.986814" x2="251.669" y2="525.583" gradientUnits="userSpaceOnUse">
<stop stop-color="#FF59A4"/>
<stop offset="1" stop-color="#F1FF4F"/>
</linearGradient>
<clipPath id="clip0_478_5943">
<rect width="560" height="635" fill="white"/>
</clipPath>
<pattern id="pattern0_478_5943" patternUnits="userSpaceOnUse" patternTransform="matrix(95.92 0 0 47.96 0.00195312 0)" preserveAspectRatio="none" viewBox="0 0 95.92 47.96" width="1" height="1">
<use xlink:href="#pattern0_478_5943_inner" transform="translate(0 -47.96)"/>
<use xlink:href="#pattern0_478_5943_inner" transform="translate(47.96 -23.98)"/>
<g id="pattern0_478_5943_inner">
<circle cx="11" cy="11" r="11" fill="#FF59A4"/>
</g>
<use xlink:href="#pattern0_478_5943_inner" transform="translate(47.96 23.98)"/>
</pattern></defs>
</svg>
